<svg xmlns="http://www.w3.org/2000/svg" xmlns:xlink="http://www.w3.org/1999/xlink" width="500" zoomAndPan="magnify" viewBox="0 0 375 374.999991" height="500" preserveAspectRatio="xMidYMid meet" version="1.2"><g id="7f569d0c8a"><path style=" stroke:none;fill-rule:evenodd;fill:#ffffff;fill-opacity:1;" d="M 174.808594 0.789062 C 168.226562 0.929688 151.628906 1.535156 146.335938 1.828125 C 144.675781 1.921875 141.90625 2.148438 140.179688 2.339844 C 138.453125 2.527344 135.429688 2.765625 133.464844 2.871094 C 131.496094 2.972656 128.671875 3.210938 127.183594 3.394531 C 125.695312 3.578125 122.636719 3.851562 120.378906 4 C 113.671875 4.4375 113.46875 4.453125 109.476562 4.808594 C 103.84375 5.3125 99.5 5.800781 98.035156 6.101562 C 97.324219 6.246094 95.917969 6.480469 94.910156 6.617188 C 93.902344 6.753906 92.414062 6.984375 91.597656 7.132812 C 90.78125 7.277344 89.210938 7.476562 88.109375 7.578125 C 84.03125 7.953125 82.738281 8.125 80.714844 8.550781 C 79.570312 8.792969 77.960938 9.101562 77.136719 9.234375 C 76.3125 9.367188 74.851562 9.632812 73.890625 9.828125 C 70.023438 10.605469 68.183594 10.941406 65.515625 11.351562 C 62.789062 11.769531 59.152344 12.609375 56.53125 13.425781 C 55.8125 13.648438 54.714844 13.957031 54.089844 14.109375 C 53.46875 14.261719 52.523438 14.503906 51.996094 14.652344 C 51.46875 14.796875 50.292969 15.042969 49.378906 15.199219 C 48.347656 15.371094 47 15.773438 45.804688 16.261719 C 44.75 16.691406 43.179688 17.300781 42.316406 17.613281 C 38.425781 19.019531 38.300781 19.078125 34.796875 21.304688 C 32.6875 22.644531 32.183594 23.011719 31.238281 23.890625 C 30.710938 24.382812 29.96875 25.046875 29.589844 25.367188 C 28.9375 25.921875 26.8125 28.363281 25.796875 29.722656 C 25.109375 30.644531 24.601562 31.566406 23.855469 33.230469 C 23.488281 34.046875 22.992188 35.113281 22.75 35.601562 C 22.03125 37.054688 21.460938 38.785156 21.089844 40.644531 C 20.894531 41.601562 20.480469 43.328125 20.164062 44.480469 C 19.847656 45.632812 19.492188 47.007812 19.371094 47.535156 C 19.253906 48.0625 19.089844 48.617188 19.011719 48.769531 C 18.777344 49.230469 17.511719 55.808594 17.132812 58.535156 C 16.9375 59.933594 16.570312 61.972656 16.3125 63.070312 C 16.058594 64.167969 15.664062 65.851562 15.4375 66.8125 C 15.214844 67.769531 14.90625 69.652344 14.757812 70.996094 C 14.605469 72.339844 14.289062 74.539062 14.054688 75.882812 C 13.824219 77.226562 13.542969 78.953125 13.4375 79.71875 C 13.332031 80.488281 13.101562 81.742188 12.925781 82.511719 C 12.746094 83.277344 12.472656 84.808594 12.308594 85.914062 C 12.148438 87.015625 11.863281 88.570312 11.675781 89.363281 C 11.488281 90.160156 11.183594 92.082031 10.996094 93.640625 C 10.8125 95.195312 10.464844 97.722656 10.226562 99.257812 C 9.785156 102.136719 8.878906 108.59375 8.554688 111.207031 C 8.453125 112.023438 8.214844 113.265625 8.027344 113.964844 C 7.511719 115.878906 7.378906 117.0625 6.988281 123.15625 C 6.792969 126.226562 6.519531 130.113281 6.378906 131.792969 C 6.238281 133.472656 6.042969 136.570312 5.941406 138.683594 C 5.84375 140.792969 5.722656 142.71875 5.679688 142.957031 C 5.542969 143.675781 5.105469 149.773438 4.90625 153.683594 C 4.070312 170.136719 3.96875 173.984375 3.953125 189.796875 C 3.9375 206.476562 3.988281 211.703125 4.222656 216.050781 C 4.511719 221.464844 5.269531 232.421875 5.507812 234.714844 C 5.890625 238.347656 6.09375 240.800781 6.292969 244.222656 C 6.390625 245.949219 6.585938 248.738281 6.71875 250.417969 C 6.855469 252.097656 7.015625 254.609375 7.074219 256 C 7.367188 262.976562 8.171875 271.414062 9.082031 277.019531 C 9.269531 278.171875 9.507812 280.054688 9.609375 281.207031 C 9.851562 283.898438 10.046875 285.757812 10.46875 289.320312 C 10.660156 290.902344 10.9375 293.925781 11.089844 296.035156 C 11.242188 298.144531 11.515625 300.617188 11.699219 301.53125 C 11.878906 302.441406 12.117188 304.011719 12.226562 305.019531 C 12.335938 306.027344 12.613281 307.753906 12.839844 308.855469 C 13.066406 309.960938 13.378906 312 13.535156 313.390625 C 13.691406 314.785156 13.929688 316.421875 14.070312 317.035156 C 14.210938 317.648438 14.480469 319.574219 14.671875 321.3125 C 14.859375 323.046875 15.171875 325.019531 15.359375 325.691406 C 15.546875 326.363281 15.820312 327.621094 15.964844 328.488281 C 16.113281 329.355469 16.382812 330.652344 16.566406 331.367188 C 16.746094 332.082031 16.988281 333.335938 17.105469 334.152344 C 17.21875 334.96875 17.464844 336.214844 17.652344 336.925781 C 17.839844 337.636719 18.152344 339.035156 18.34375 340.027344 C 18.546875 341.089844 19.085938 342.847656 19.640625 344.277344 C 20.164062 345.621094 20.71875 347.167969 20.875 347.71875 C 21.210938 348.886719 22.183594 350.769531 23.464844 352.730469 C 23.96875 353.496094 24.554688 354.417969 24.765625 354.773438 C 25.261719 355.601562 28.683594 358.464844 29.785156 358.96875 C 30.996094 359.523438 32.890625 359.492188 34.210938 358.890625 C 35.148438 358.464844 38.046875 356.109375 38.550781 355.363281 C 38.820312 354.964844 40.746094 352.925781 41.660156 352.070312 C 41.972656 351.777344 42.226562 351.46875 42.226562 351.378906 C 42.226562 351.214844 42.449219 350.960938 44.601562 348.652344 C 45.78125 347.386719 46.8125 346.214844 48.039062 344.734375 C 48.347656 344.367188 48.902344 343.742188 49.277344 343.339844 C 49.652344 342.941406 50.320312 342.132812 50.761719 341.542969 C 51.6875 340.304688 53.304688 338.394531 54.804688 336.769531 C 55.378906 336.144531 56.414062 334.953125 57.105469 334.125 C 60.339844 330.242188 60.984375 329.484375 61.574219 328.894531 C 62.5 327.960938 63.042969 327.320312 63.335938 326.792969 C 63.480469 326.539062 64.894531 324.863281 66.476562 323.070312 C 68.058594 321.277344 69.5 319.582031 69.675781 319.304688 C 69.855469 319.027344 70.058594 318.800781 70.132812 318.800781 C 70.207031 318.800781 70.464844 318.507812 70.707031 318.144531 C 70.949219 317.785156 71.664062 316.960938 72.292969 316.308594 C 72.921875 315.660156 74.050781 314.402344 74.796875 313.519531 C 75.542969 312.632812 76.390625 311.667969 76.679688 311.371094 C 76.96875 311.074219 77.480469 310.460938 77.816406 310.007812 C 78.152344 309.554688 78.855469 308.777344 79.382812 308.28125 C 79.910156 307.78125 80.78125 306.785156 81.324219 306.066406 C 81.867188 305.347656 82.722656 304.324219 83.21875 303.796875 C 83.71875 303.269531 84.316406 302.5625 84.550781 302.226562 C 85.296875 301.15625 85.746094 300.582031 86.191406 300.117188 C 86.429688 299.863281 86.875 299.355469 87.179688 298.980469 C 87.488281 298.609375 88.679688 297.164062 89.832031 295.773438 C 92.785156 292.207031 92.75 292.253906 93.21875 291.671875 C 94.230469 290.425781 94.480469 289.152344 93.945312 288.015625 C 93.699219 287.503906 91.226562 284.648438 89.359375 282.726562 C 88.960938 282.316406 88.328125 281.570312 87.957031 281.070312 C 87.589844 280.570312 86.96875 279.832031 86.578125 279.433594 C 86.1875 279.035156 85.339844 277.9375 84.691406 276.992188 C 84.042969 276.046875 83.082031 274.648438 82.554688 273.878906 C 82.03125 273.113281 81.429688 272.25 81.214844 271.960938 C 81.003906 271.671875 80.792969 271.320312 80.742188 271.175781 C 80.691406 271.03125 80.1875 270.261719 79.625 269.464844 C 79.0625 268.667969 78.480469 267.804688 78.335938 267.546875 C 78.191406 267.289062 77.679688 266.496094 77.203125 265.789062 C 76.722656 265.082031 76.214844 264.296875 76.070312 264.042969 C 75.925781 263.792969 75.535156 263.15625 75.203125 262.628906 C 74.871094 262.101562 74.496094 261.472656 74.375 261.234375 C 74.253906 260.992188 74.003906 260.5625 73.824219 260.273438 C 72.519531 258.195312 71.234375 255.871094 70.832031 254.863281 C 70.675781 254.480469 70.066406 253.28125 69.472656 252.199219 C 68.878906 251.117188 68.394531 250.195312 68.394531 250.15625 C 68.394531 250.113281 67.34375 247.9375 66.054688 245.320312 C 64.769531 242.703125 63.628906 240.207031 63.519531 239.777344 C 63.40625 239.34375 63.132812 238.519531 62.90625 237.945312 C 62.679688 237.367188 62.375 236.542969 62.234375 236.113281 C 62.09375 235.679688 61.605469 234.464844 61.152344 233.40625 C 60.695312 232.351562 60.175781 230.902344 59.996094 230.179688 C 59.8125 229.460938 59.46875 228.207031 59.230469 227.390625 C 58.992188 226.574219 58.796875 225.78125 58.796875 225.632812 C 58.800781 225.480469 58.566406 224.519531 58.277344 223.492188 C 57.988281 222.46875 57.636719 220.902344 57.496094 220.015625 C 57.355469 219.128906 57.050781 217.699219 56.820312 216.835938 C 56.21875 214.585938 55.65625 209.117188 55.296875 202.007812 C 55.066406 197.457031 55.191406 180.113281 55.464844 178.109375 C 55.558594 177.4375 55.722656 175.121094 55.828125 172.960938 C 56.023438 169.035156 56.496094 163.21875 56.640625 162.984375 C 56.683594 162.914062 56.914062 161.738281 57.152344 160.367188 C 57.585938 157.894531 58.171875 155.25 58.84375 152.726562 C 59.035156 152.007812 59.464844 150.238281 59.800781 148.800781 C 60.136719 147.363281 60.722656 145.28125 61.105469 144.179688 C 62.855469 139.105469 63.167969 138.15625 63.441406 137.0625 C 63.601562 136.417969 63.953125 135.421875 64.226562 134.84375 C 64.5 134.269531 65.148438 132.738281 65.671875 131.445312 C 67.207031 127.628906 67.796875 126.292969 68.578125 124.859375 C 70.078125 122.117188 71.011719 120.292969 71.011719 120.105469 C 71.011719 120 71.476562 119.230469 72.039062 118.394531 C 72.605469 117.5625 73.457031 116.132812 73.929688 115.21875 C 74.402344 114.308594 75.3125 112.796875 75.953125 111.863281 C 76.59375 110.929688 77.117188 110.136719 77.117188 110.101562 C 77.117188 109.84375 79.042969 106.910156 79.730469 106.125 C 80.203125 105.585938 80.765625 104.800781 80.980469 104.382812 C 81.40625 103.554688 82.027344 102.648438 82.640625 101.960938 C 83.445312 101.0625 85.089844 99.050781 85.78125 98.113281 C 87.085938 96.347656 90.132812 93.128906 96.410156 86.871094 C 101.316406 81.984375 104.191406 79.261719 105.0625 78.6875 C 105.382812 78.472656 105.707031 78.257812 106.027344 78.042969 C 106.253906 77.886719 107.117188 77.179688 107.941406 76.472656 C 108.769531 75.761719 109.617188 75.066406 109.828125 74.921875 C 110.042969 74.777344 110.558594 74.433594 110.980469 74.15625 C 111.402344 73.882812 112.257812 73.242188 112.878906 72.738281 C 113.503906 72.230469 114.523438 71.523438 115.148438 71.160156 C 115.769531 70.796875 116.320312 70.445312 116.367188 70.375 C 116.527344 70.140625 118.351562 68.964844 120.207031 67.902344 C 122.347656 66.675781 123.8125 65.738281 123.960938 65.496094 C 124.125 65.234375 125.355469 64.621094 127.097656 63.9375 C 127.960938 63.597656 129.515625 62.859375 130.550781 62.296875 C 131.589844 61.738281 133.199219 60.972656 134.128906 60.597656 C 135.058594 60.222656 136.683594 59.488281 137.738281 58.96875 C 138.792969 58.449219 140.679688 57.699219 141.925781 57.300781 C 144.265625 56.554688 146.894531 55.652344 147.507812 55.382812 C 149.441406 54.527344 150.921875 54.132812 155.621094 53.203125 C 156.914062 52.949219 158.484375 52.597656 159.109375 52.425781 C 159.730469 52.25 160.832031 51.988281 161.550781 51.835938 C 162.269531 51.6875 163.566406 51.40625 164.429688 51.214844 C 165.292969 51.019531 166.863281 50.78125 167.917969 50.679688 C 168.972656 50.582031 171.054688 50.378906 172.539062 50.230469 C 174.027344 50.085938 176.382812 49.851562 177.773438 49.714844 C 180.640625 49.433594 182.253906 49.25 185.625 48.820312 C 189.085938 48.378906 203.050781 48.359375 206.210938 48.792969 C 208.429688 49.09375 211.019531 49.417969 214.929688 49.882812 C 216.128906 50.023438 218.917969 50.304688 221.125 50.507812 C 223.539062 50.726562 225.796875 51.035156 226.792969 51.277344 C 227.707031 51.503906 228.765625 51.734375 229.148438 51.796875 C 230.023438 51.933594 233.433594 52.703125 235.167969 53.152344 C 235.886719 53.339844 237.535156 53.753906 238.832031 54.074219 C 241.210938 54.65625 243.8125 55.476562 244.171875 55.761719 C 244.386719 55.925781 247.027344 56.902344 249.125 57.589844 C 249.84375 57.828125 250.902344 58.246094 251.476562 58.519531 C 253.128906 59.304688 254.738281 60.019531 255.402344 60.257812 C 257.121094 60.878906 258.867188 61.632812 261.074219 62.714844 C 262.417969 63.371094 263.867188 64.078125 264.300781 64.277344 C 265.570312 64.875 266.070312 65.183594 267.535156 66.285156 C 268.296875 66.855469 269.394531 67.566406 269.96875 67.863281 C 271.109375 68.445312 271.984375 69.011719 273.195312 69.949219 C 274.546875 70.988281 275.433594 71.609375 275.585938 71.609375 C 275.820312 71.609375 277.269531 72.6875 278.367188 73.683594 C 278.929688 74.191406 279.78125 74.835938 280.261719 75.109375 C 280.742188 75.386719 281.527344 75.964844 282.007812 76.394531 C 282.488281 76.824219 283.472656 77.632812 284.203125 78.1875 C 286.246094 79.746094 289.785156 82.699219 291.878906 84.59375 C 292.417969 85.078125 293.90625 86.417969 295.1875 87.570312 C 296.464844 88.722656 298.011719 90.171875 298.617188 90.796875 C 299.226562 91.421875 299.84375 92.046875 299.988281 92.191406 C 303.992188 96.101562 307.632812 100.097656 308.558594 101.601562 C 309.539062 103.199219 309.710938 103.632812 309.726562 104.578125 C 309.742188 105.707031 309.371094 106.417969 307.988281 107.894531 C 307.492188 108.421875 306.792969 109.246094 306.433594 109.726562 C 305.667969 110.738281 304.679688 111.628906 304.117188 111.804688 C 303.738281 111.925781 302.15625 113.703125 302.15625 114.011719 C 302.15625 114.09375 301.664062 114.472656 301.066406 114.851562 C 299.773438 115.664062 299.660156 115.769531 298.757812 116.9375 C 298.375 117.433594 297.945312 117.835938 297.796875 117.839844 C 297.464844 117.839844 295.542969 119.464844 295.140625 120.082031 C 294.976562 120.335938 294.132812 121.195312 293.265625 121.992188 C 292.398438 122.789062 291.6875 123.550781 291.6875 123.683594 C 291.6875 123.816406 291.359375 124.183594 290.957031 124.5 C 290.558594 124.816406 287.554688 127.738281 284.285156 130.996094 C 281.015625 134.25 277.125 137.976562 275.640625 139.273438 C 274.152344 140.570312 272.660156 141.910156 272.320312 142.25 C 270.660156 143.925781 268.726562 145.515625 268.003906 145.800781 C 267.5625 145.972656 266.761719 146.128906 266.21875 146.140625 C 264.832031 146.179688 264.195312 145.734375 261.941406 143.132812 C 260.898438 141.933594 259.835938 140.714844 259.574219 140.425781 C 259.308594 140.140625 258.753906 139.511719 258.335938 139.03125 C 256.230469 136.609375 251.988281 132.769531 248.230469 129.875 C 246.011719 128.164062 243.589844 126.382812 243.484375 126.382812 C 243.332031 126.382812 241.253906 125.003906 239.964844 124.042969 C 239.390625 123.617188 238.445312 123.023438 237.871094 122.730469 C 236.617188 122.085938 236.058594 121.769531 234.90625 121.058594 C 233.863281 120.414062 231.550781 119.359375 230.457031 119.035156 C 230.027344 118.90625 228.847656 118.398438 227.839844 117.910156 C 226.832031 117.417969 225.695312 116.914062 225.3125 116.792969 C 224.925781 116.671875 224.179688 116.390625 223.652344 116.164062 C 223.125 115.941406 222.144531 115.640625 221.472656 115.496094 C 220.800781 115.347656 219.804688 115.070312 219.253906 114.875 C 218.703125 114.679688 218.101562 114.523438 217.910156 114.523438 C 217.722656 114.523438 217.519531 114.445312 217.460938 114.347656 C 217.402344 114.25 217.136719 114.171875 216.871094 114.171875 C 216.605469 114.171875 215.8125 113.976562 215.109375 113.738281 C 214.359375 113.484375 212.675781 113.15625 211.054688 112.945312 C 209.527344 112.75 207.675781 112.476562 206.9375 112.335938 C 203.976562 111.777344 193.128906 111.53125 187.71875 111.90625 C 182.761719 112.246094 177.210938 113.367188 172.277344 115.019531 C 171.703125 115.210938 170.878906 115.484375 170.449219 115.621094 C 168.960938 116.101562 167.910156 116.554688 163.992188 118.410156 C 163.082031 118.839844 162.140625 119.253906 161.898438 119.324219 C 161.660156 119.398438 160.953125 119.769531 160.328125 120.15625 C 159.707031 120.539062 158.765625 121.101562 158.234375 121.402344 C 157.007812 122.109375 155.820312 122.949219 153.277344 124.902344 C 152.152344 125.765625 151.03125 126.601562 150.785156 126.761719 C 150.539062 126.921875 149.890625 127.457031 149.339844 127.953125 C 148.792969 128.445312 148.117188 129 147.839844 129.175781 C 146.714844 129.902344 140.070312 136.679688 139.71875 137.460938 C 139.558594 137.820312 139.347656 138.113281 137.585938 140.425781 C 137.019531 141.167969 136.363281 142.136719 136.128906 142.582031 C 135.890625 143.027344 135.625 143.484375 135.53125 143.59375 C 135.441406 143.707031 135.148438 144.21875 134.882812 144.730469 C 134.613281 145.242188 133.988281 146.3125 133.492188 147.113281 C 132.996094 147.910156 132.59375 148.640625 132.59375 148.730469 C 132.59375 148.820312 132.523438 149.03125 132.4375 149.195312 C 132.355469 149.363281 131.96875 150.164062 131.578125 150.980469 C 131.167969 151.847656 130.753906 152.714844 130.335938 153.582031 C 130.042969 154.199219 129.800781 154.808594 129.800781 154.941406 C 129.800781 155.078125 129.574219 155.789062 129.296875 156.527344 C 128.792969 157.878906 127.820312 160.902344 126.847656 164.152344 C 126.5625 165.113281 126.207031 166.652344 126.058594 167.578125 C 125.914062 168.503906 125.671875 169.71875 125.523438 170.28125 C 125.167969 171.625 124.449219 178.613281 124.226562 182.90625 C 124.015625 186.949219 124.007812 194.289062 124.210938 196.25 C 124.292969 197.019531 124.527344 199.335938 124.738281 201.398438 C 124.949219 203.460938 125.183594 205.304688 125.261719 205.496094 C 125.414062 205.867188 125.828125 207.90625 126.136719 209.769531 C 126.351562 211.082031 127.15625 213.730469 127.996094 215.898438 C 128.316406 216.730469 128.578125 217.535156 128.578125 217.691406 C 128.578125 218.257812 130.144531 221.953125 131.507812 224.597656 C 133.242188 227.964844 133.234375 227.953125 134.058594 229.222656 C 135.46875 231.398438 135.863281 232.03125 136.152344 232.59375 C 136.484375 233.230469 137.132812 234.109375 138.675781 236 C 139.234375 236.683594 139.820312 237.480469 139.976562 237.769531 C 140.128906 238.058594 140.730469 238.761719 141.308594 239.339844 C 141.886719 239.914062 142.359375 240.4375 142.359375 240.496094 C 142.363281 240.664062 146.449219 244.382812 148.375 245.96875 C 149.308594 246.734375 150.816406 247.886719 151.726562 248.523438 C 152.636719 249.164062 153.550781 249.839844 153.757812 250.027344 C 154.320312 250.535156 156.253906 251.773438 157.355469 252.335938 C 157.886719 252.605469 159.207031 253.335938 160.289062 253.957031 C 161.367188 254.578125 162.78125 255.304688 163.429688 255.570312 C 164.683594 256.085938 167.402344 257.265625 168.269531 257.671875 C 168.558594 257.808594 169.582031 258.144531 170.539062 258.421875 C 171.496094 258.699219 172.503906 259.015625 172.773438 259.121094 C 173.046875 259.230469 173.871094 259.441406 174.605469 259.59375 C 175.339844 259.746094 176.257812 259.984375 176.640625 260.125 C 177.023438 260.265625 178.582031 260.730469 180.101562 261.15625 C 183.933594 262.230469 186.929688 262.492188 195.480469 262.515625 C 203.550781 262.535156 208.347656 262.199219 212.742188 261.304688 C 216.019531 260.636719 216.945312 260.421875 217.460938 260.191406 C 217.652344 260.105469 218.429688 259.902344 219.191406 259.742188 C 220.527344 259.460938 220.945312 259.347656 224.21875 258.363281 C 225.058594 258.113281 226.511719 257.550781 227.449219 257.117188 C 228.382812 256.679688 229.621094 256.167969 230.195312 255.976562 C 230.769531 255.785156 231.800781 255.359375 232.484375 255.027344 C 233.167969 254.699219 233.777344 254.429688 233.835938 254.429688 C 233.894531 254.429688 234.328125 254.152344 234.796875 253.816406 C 235.265625 253.480469 236.382812 252.839844 237.285156 252.394531 C 239.085938 251.496094 239.230469 251.40625 241.578125 249.589844 C 242.476562 248.890625 243.289062 248.324219 243.382812 248.324219 C 243.542969 248.324219 244.664062 247.390625 249.019531 243.621094 C 251.605469 241.378906 254.613281 238.347656 257.671875 234.890625 C 258.476562 233.980469 259.769531 232.5625 260.542969 231.742188 C 261.3125 230.925781 262.476562 229.65625 263.125 228.921875 C 264.992188 226.804688 267.136719 225.898438 269.25 226.339844 C 270.339844 226.566406 271.871094 227.324219 272.90625 228.152344 C 273.742188 228.824219 281.980469 237.09375 282.382812 237.667969 C 282.542969 237.894531 282.992188 238.363281 283.386719 238.707031 C 283.777344 239.050781 284.53125 239.804688 285.058594 240.378906 C 285.585938 240.953125 286.484375 241.859375 287.050781 242.386719 C 287.621094 242.917969 288.210938 243.503906 288.359375 243.691406 C 288.511719 243.875 289.0625 244.425781 289.582031 244.910156 C 291.414062 246.617188 294.214844 249.296875 295.429688 250.503906 C 296.105469 251.175781 296.972656 251.984375 297.359375 252.308594 C 297.742188 252.628906 298.644531 253.460938 299.363281 254.15625 C 300.082031 254.851562 301 255.65625 301.40625 255.945312 C 302.09375 256.441406 303.292969 257.554688 306.609375 260.796875 C 307.394531 261.5625 308.59375 262.722656 309.269531 263.371094 C 311.054688 265.085938 311.320312 266.027344 310.78125 268.699219 C 310.457031 270.277344 310.058594 271.117188 309.066406 272.308594 C 308.667969 272.789062 308.066406 273.558594 307.734375 274.015625 C 306.503906 275.710938 306.09375 276.191406 304 278.414062 C 302.621094 279.875 301.246094 281.339844 299.871094 282.804688 C 298.777344 283.96875 297.390625 285.324219 296.792969 285.816406 C 296.195312 286.308594 295.53125 286.945312 295.320312 287.230469 C 295.109375 287.515625 294.34375 288.253906 293.617188 288.867188 C 292.890625 289.480469 291.90625 290.363281 291.425781 290.828125 C 290.390625 291.835938 288.867188 293.148438 287.382812 294.316406 C 285.65625 295.675781 283.128906 297.789062 282.09375 298.746094 C 281.566406 299.230469 280.796875 299.820312 280.386719 300.050781 C 279.976562 300.28125 279.054688 300.964844 278.34375 301.566406 C 276.761719 302.90625 276.207031 303.328125 275.640625 303.621094 C 275.109375 303.890625 272.832031 305.523438 272.585938 305.804688 C 272.304688 306.128906 270.007812 307.464844 269.535156 307.582031 C 269.292969 307.636719 268.429688 308.171875 267.609375 308.769531 C 266.792969 309.367188 265.9375 309.914062 265.707031 309.988281 C 265.480469 310.058594 264.910156 310.34375 264.441406 310.621094 C 263.972656 310.898438 263.507812 311.125 263.414062 311.125 C 263.179688 311.125 261.335938 312.125 259.632812 313.175781 C 259.125 313.488281 258.617188 313.742188 258.496094 313.742188 C 258.378906 313.742188 258.027344 313.898438 257.710938 314.089844 C 257.398438 314.28125 256.675781 314.59375 256.109375 314.785156 C 255.539062 314.976562 254.226562 315.5625 253.191406 316.085938 C 252.152344 316.609375 250.480469 317.28125 249.472656 317.578125 C 246.878906 318.335938 245.90625 318.652344 242.84375 319.722656 C 241.355469 320.246094 239.394531 320.808594 238.480469 320.976562 C 237.570312 321.144531 235.882812 321.5 234.730469 321.769531 C 233.578125 322.035156 232.285156 322.304688 231.851562 322.367188 C 231.066406 322.476562 229.398438 322.84375 225.136719 323.84375 C 222.132812 324.546875 221.121094 324.695312 217.808594 324.910156 C 216.273438 325.007812 213.957031 325.242188 212.664062 325.429688 C 210.515625 325.738281 208.277344 325.941406 201.230469 326.46875 C 197.773438 326.726562 192.621094 326.695312 188.242188 326.390625 C 181.253906 325.902344 179.609375 325.769531 177.339844 325.515625 C 176.089844 325.378906 173.148438 325.144531 170.796875 324.996094 C 165.914062 324.691406 164.304688 324.503906 162.335938 324.007812 C 161.566406 323.8125 160.195312 323.503906 159.28125 323.324219 C 158.371094 323.140625 156.488281 322.683594 155.097656 322.304688 C 153.875 321.972656 152.65625 321.644531 151.433594 321.316406 C 148.699219 320.59375 147.9375 320.367188 146.375 319.796875 C 145.460938 319.464844 144.519531 319.117188 144.28125 319.019531 C 143.503906 318.707031 142.125 318.605469 141.160156 318.792969 C 140.246094 318.96875 136.140625 321.105469 135.019531 321.988281 C 133.222656 323.398438 131.324219 324.746094 130.773438 325 C 130.476562 325.136719 129.882812 325.523438 129.453125 325.855469 C 129.019531 326.1875 128 326.90625 127.183594 327.453125 C 126.367188 327.996094 125.269531 328.742188 124.742188 329.109375 C 124.214844 329.476562 122.878906 330.382812 121.777344 331.117188 C 120.671875 331.855469 119.574219 332.605469 119.335938 332.78125 C 118.957031 333.0625 115.667969 335.316406 114.53125 336.070312 C 114.316406 336.214844 113.484375 336.792969 112.679688 337.355469 C 111.878906 337.921875 111.105469 338.425781 110.960938 338.476562 C 110.570312 338.621094 108.210938 340.222656 108.082031 340.429688 C 108.019531 340.53125 107.683594 340.773438 107.328125 340.96875 C 105.242188 342.128906 104.328125 342.679688 103.582031 343.222656 C 102.371094 344.105469 100.542969 345.242188 99.507812 345.753906 C 99.011719 346 98.09375 346.617188 97.472656 347.128906 C 96.847656 347.640625 95.65625 348.425781 94.828125 348.875 C 93.511719 349.585938 91.519531 350.867188 90.726562 351.511719 C 90.582031 351.628906 89.902344 352.019531 89.214844 352.382812 C 88.527344 352.742188 87.550781 353.351562 87.046875 353.734375 C 86.542969 354.113281 85.535156 354.742188 84.808594 355.128906 C 82.714844 356.242188 81.117188 357.191406 80.332031 357.789062 C 79.933594 358.09375 79.066406 358.644531 78.40625 359.007812 C 77.746094 359.375 76.851562 359.960938 76.421875 360.3125 C 75.398438 361.136719 74.21875 361.871094 72.507812 362.734375 C 70.925781 363.539062 69.378906 364.808594 69.132812 365.507812 C 68.933594 366.085938 69.121094 366.683594 69.582031 366.929688 C 70.042969 367.175781 71.714844 367.417969 74.589844 367.648438 C 75.929688 367.757812 78.050781 368.042969 79.296875 368.285156 C 83.257812 369.042969 88.640625 369.90625 91.074219 370.171875 C 92.367188 370.3125 94.609375 370.585938 96.050781 370.773438 C 97.816406 371.007812 100.609375 371.179688 104.597656 371.300781 C 111.9375 371.515625 113.410156 371.59375 118.113281 372.003906 C 120.175781 372.183594 123.082031 372.417969 124.566406 372.523438 C 126.054688 372.628906 128.292969 372.789062 129.539062 372.882812 C 130.785156 372.976562 133.691406 373.125 135.992188 373.21875 C 140.023438 373.378906 142.75 373.441406 155.445312 373.683594 C 158.660156 373.742188 172.671875 373.800781 186.582031 373.8125 C 206.699219 373.828125 214.046875 373.769531 222.457031 373.53125 C 228.277344 373.367188 233.144531 373.195312 233.273438 373.148438 C 233.402344 373.105469 236.453125 372.90625 240.050781 372.710938 C 247.136719 372.320312 249.683594 372.128906 252.785156 371.746094 C 253.890625 371.609375 256.558594 371.375 258.71875 371.222656 C 260.875 371.074219 263.820312 370.796875 265.257812 370.609375 C 266.699219 370.421875 269.917969 370.105469 272.410156 369.90625 C 274.90625 369.707031 277.339844 369.472656 277.820312 369.382812 C 278.300781 369.296875 279.988281 369.023438 281.570312 368.78125 C 283.152344 368.539062 285.195312 368.191406 286.105469 368.007812 C 287.019531 367.824219 288.507812 367.625 289.421875 367.5625 C 292.003906 367.390625 294.367188 367.140625 296.835938 366.78125 C 298.082031 366.597656 300.003906 366.359375 301.109375 366.25 C 302.210938 366.144531 303.820312 365.867188 304.683594 365.644531 C 305.546875 365.417969 306.609375 365.179688 307.039062 365.117188 C 308.078125 364.964844 311.265625 364.328125 311.390625 364.25 C 311.445312 364.214844 312.433594 364.0625 313.582031 363.90625 C 318.789062 363.210938 321.890625 362.511719 327.1875 360.847656 C 328.050781 360.574219 329.574219 360.183594 330.570312 359.980469 C 331.988281 359.6875 332.824219 359.382812 334.40625 358.582031 C 335.523438 358.015625 337.179688 357.226562 338.089844 356.828125 C 340.203125 355.90625 341.261719 355.300781 342.648438 354.21875 C 343.261719 353.742188 344.066406 353.136719 344.4375 352.867188 C 344.808594 352.601562 345.320312 352.164062 345.570312 351.898438 C 345.824219 351.636719 346.714844 350.699219 347.554688 349.820312 C 348.394531 348.941406 349.082031 348.15625 349.082031 348.078125 C 349.082031 348 349.492188 347.445312 349.996094 346.84375 C 350.984375 345.667969 351.871094 344.417969 351.871094 344.207031 C 351.871094 344.132812 352.113281 343.589844 352.410156 342.996094 C 352.707031 342.402344 353.148438 341.445312 353.386719 340.867188 C 353.628906 340.292969 354.007812 339.429688 354.230469 338.949219 C 355.066406 337.136719 355.550781 335.761719 355.867188 334.324219 C 356.585938 331.058594 357.359375 328.007812 358.078125 325.605469 C 359.109375 322.164062 359.316406 321.136719 359.714844 317.472656 C 359.90625 315.734375 360.210938 313.617188 360.398438 312.761719 C 360.585938 311.910156 360.792969 310.78125 360.859375 310.253906 C 360.925781 309.722656 361.164062 308.351562 361.386719 307.199219 C 361.613281 306.046875 361.957031 303.988281 362.152344 302.625 C 362.351562 301.261719 362.589844 299.789062 362.6875 299.351562 C 362.785156 298.917969 363.023438 297.050781 363.214844 295.203125 C 363.40625 293.359375 363.71875 291.101562 363.90625 290.191406 C 364.09375 289.28125 364.414062 287.355469 364.613281 285.917969 C 364.8125 284.476562 365.085938 282.828125 365.214844 282.253906 C 365.773438 279.769531 366.960938 270.222656 367.304688 265.410156 C 367.453125 263.351562 367.726562 260.375 367.917969 258.789062 C 368.230469 256.136719 368.398438 254.160156 369.054688 245.445312 C 369.421875 240.539062 369.941406 227.988281 370.296875 215.351562 C 370.351562 213.480469 370.453125 210.027344 370.527344 207.675781 C 370.601562 205.328125 370.671875 198.429688 370.6875 192.347656 C 370.703125 186.269531 370.753906 181.238281 370.796875 181.167969 C 370.9375 180.941406 370.367188 161.890625 369.929688 152.203125 C 369.792969 149.179688 369.632812 145.058594 369.578125 143.042969 C 369.441406 138.160156 369.171875 132.476562 368.96875 130.222656 C 368.792969 128.289062 368.734375 127.460938 368.4375 122.984375 C 368.335938 121.449219 368.179688 119.5625 368.089844 118.796875 C 367.773438 116.09375 367.417969 112.3125 367.234375 109.726562 C 367.132812 108.285156 367.003906 106.519531 366.945312 105.800781 C 366.84375 104.46875 366.414062 101.160156 366.257812 100.496094 C 366.164062 100.101562 365.929688 97.945312 365.648438 94.898438 C 365.550781 93.839844 365.316406 92.152344 365.128906 91.144531 C 364.945312 90.136719 364.667969 88.292969 364.515625 87.046875 C 364.359375 85.800781 364.128906 84.070312 363.996094 83.207031 C 363.867188 82.34375 363.59375 79.988281 363.386719 77.976562 C 363.042969 74.617188 362.433594 71.207031 361.300781 66.375 C 361.109375 65.558594 360.867188 64.261719 360.765625 63.496094 C 360.660156 62.726562 360.425781 61.546875 360.246094 60.871094 C 360.066406 60.195312 359.753906 58.664062 359.554688 57.46875 C 359.351562 56.273438 359.074219 55 358.933594 54.636719 C 358.792969 54.277344 358.484375 53.097656 358.25 52.023438 C 358.015625 50.945312 357.710938 49.75 357.574219 49.363281 C 357.4375 48.976562 357.269531 48.3125 357.203125 47.878906 C 357.132812 47.449219 356.859375 46.15625 356.585938 45.003906 C 356.316406 43.851562 356 42.28125 355.886719 41.515625 C 355.644531 39.90625 354.863281 37.34375 354.125 35.757812 C 353.847656 35.152344 353.617188 34.570312 353.617188 34.464844 C 353.617188 34.246094 353.613281 34.238281 352.558594 32.105469 C 351.273438 29.503906 348.015625 25.902344 344.894531 23.617188 C 344.125 23.054688 341.964844 21.890625 340.707031 21.355469 C 340.179688 21.132812 339.003906 20.535156 338.089844 20.03125 C 337.066406 19.460938 335.273438 18.71875 333.382812 18.078125 C 331.703125 17.507812 329.414062 16.683594 328.292969 16.246094 C 326.855469 15.6875 325.625 15.347656 324.105469 15.097656 C 322.921875 14.90625 321.679688 14.664062 321.34375 14.5625 C 321.007812 14.460938 319.988281 14.21875 319.078125 14.019531 C 318.164062 13.824219 316.753906 13.480469 315.9375 13.257812 C 312.539062 12.324219 309.617188 11.726562 307.3125 11.488281 C 305.960938 11.347656 304.308594 11.113281 303.636719 10.964844 C 302.964844 10.820312 301.554688 10.550781 300.5 10.371094 C 299.441406 10.1875 297.753906 9.84375 296.746094 9.601562 C 293.519531 8.832031 288.539062 7.953125 285.84375 7.679688 C 283.074219 7.394531 279.265625 6.84375 274.242188 6.003906 C 272.566406 5.722656 269.621094 5.332031 267.703125 5.132812 C 265.78125 4.933594 263.429688 4.664062 262.46875 4.535156 C 261.507812 4.40625 259.585938 4.25 258.195312 4.191406 C 253.847656 4.003906 250.203125 3.75 246.855469 3.398438 C 245.082031 3.214844 242.410156 2.976562 240.925781 2.871094 C 239.4375 2.769531 236.53125 2.53125 234.46875 2.347656 C 232.40625 2.164062 228.167969 1.933594 225.050781 1.835938 C 221.929688 1.734375 217.613281 1.574219 215.453125 1.476562 C 202.644531 0.894531 197.898438 0.75 189.984375 0.707031 C 185.140625 0.679688 178.3125 0.714844 174.808594 0.789062 "/></g></svg>