<svg xmlns="http://www.w3.org/2000/svg" xmlns:xlink="http://www.w3.org/1999/xlink" width="500" zoomAndPan="magnify" viewBox="0 0 375 374.999991" height="500" preserveAspectRatio="xMidYMid meet" version="1.2"><defs><clipPath id="6d40b3850f"><path d="M 4 0 L 371.84375 0 L 371.84375 374 L 4 374 Z M 4 0 "/></clipPath></defs><g id="4123a9ec44"><g clip-rule="nonzero" clip-path="url(#6d40b3850f)"><path style=" stroke:none;fill-rule:evenodd;fill:#000000;fill-opacity:1;" d="M 175.019531 0.773438 C 168.429688 0.914062 151.820312 1.519531 146.519531 1.8125 C 144.859375 1.90625 142.089844 2.132812 140.359375 2.324219 C 138.632812 2.511719 135.605469 2.75 133.636719 2.855469 C 131.667969 2.957031 128.839844 3.195312 127.351562 3.378906 C 125.863281 3.5625 122.796875 3.835938 120.542969 3.984375 C 113.824219 4.421875 113.625 4.4375 109.628906 4.792969 C 103.988281 5.296875 99.640625 5.785156 98.175781 6.085938 C 97.464844 6.234375 96.054688 6.464844 95.046875 6.601562 C 94.039062 6.738281 92.546875 6.96875 91.730469 7.117188 C 90.914062 7.261719 89.34375 7.464844 88.238281 7.566406 C 84.15625 7.941406 82.867188 8.109375 80.835938 8.539062 C 79.695312 8.777344 78.082031 9.085938 77.257812 9.21875 C 76.429688 9.351562 74.96875 9.617188 74.007812 9.8125 C 70.136719 10.589844 68.292969 10.925781 65.625 11.335938 C 62.894531 11.753906 59.253906 12.59375 56.632812 13.410156 C 55.914062 13.632812 54.8125 13.941406 54.1875 14.09375 C 53.566406 14.246094 52.621094 14.488281 52.09375 14.636719 C 51.566406 14.78125 50.386719 15.027344 49.472656 15.183594 C 48.441406 15.359375 47.09375 15.757812 45.894531 16.246094 C 44.839844 16.675781 43.265625 17.285156 42.402344 17.597656 C 38.507812 19.003906 38.386719 19.0625 34.878906 21.289062 C 32.765625 22.628906 32.257812 22.996094 31.316406 23.875 C 30.785156 24.367188 30.042969 25.03125 29.664062 25.351562 C 29.011719 25.90625 26.882812 28.347656 25.871094 29.707031 C 25.183594 30.628906 24.671875 31.550781 23.925781 33.214844 C 23.558594 34.03125 23.058594 35.097656 22.820312 35.585938 C 22.101562 37.039062 21.53125 38.769531 21.15625 40.628906 C 20.964844 41.585938 20.546875 43.316406 20.230469 44.464844 C 19.914062 45.617188 19.558594 46.992188 19.4375 47.519531 C 19.316406 48.046875 19.15625 48.601562 19.078125 48.757812 C 18.84375 49.214844 17.574219 55.792969 17.195312 58.519531 C 17.003906 59.917969 16.632812 61.960938 16.378906 63.054688 C 16.121094 64.152344 15.726562 65.835938 15.5 66.796875 C 15.277344 67.753906 14.96875 69.640625 14.816406 70.980469 C 14.667969 72.324219 14.351562 74.523438 14.117188 75.867188 C 13.882812 77.210938 13.605469 78.9375 13.5 79.703125 C 13.394531 80.472656 13.160156 81.726562 12.984375 82.496094 C 12.808594 83.261719 12.53125 84.792969 12.371094 85.898438 C 12.207031 87 11.921875 88.554688 11.734375 89.351562 C 11.546875 90.144531 11.242188 92.070312 11.054688 93.625 C 10.867188 95.179688 10.523438 97.707031 10.285156 99.242188 C 9.839844 102.121094 8.933594 108.578125 8.609375 111.191406 C 8.507812 112.007812 8.269531 113.25 8.082031 113.949219 C 7.566406 115.863281 7.433594 117.046875 7.042969 123.140625 C 6.847656 126.210938 6.570312 130.097656 6.433594 131.777344 C 6.292969 133.457031 6.09375 136.558594 5.996094 138.667969 C 5.894531 140.777344 5.777344 142.703125 5.730469 142.941406 C 5.597656 143.660156 5.15625 149.757812 4.957031 153.671875 C 4.121094 170.121094 4.019531 173.96875 4.003906 189.78125 C 3.988281 206.460938 4.042969 211.6875 4.273438 216.035156 C 4.5625 221.449219 5.320312 232.40625 5.5625 234.699219 C 5.945312 238.332031 6.144531 240.785156 6.34375 244.207031 C 6.445312 245.9375 6.636719 248.722656 6.773438 250.402344 C 6.910156 252.082031 7.070312 254.59375 7.128906 255.984375 C 7.421875 262.960938 8.230469 271.398438 9.140625 277.003906 C 9.324219 278.15625 9.5625 280.039062 9.664062 281.191406 C 9.90625 283.882812 10.105469 285.746094 10.527344 289.304688 C 10.714844 290.886719 10.996094 293.910156 11.148438 296.019531 C 11.300781 298.128906 11.574219 300.601562 11.757812 301.515625 C 11.9375 302.425781 12.175781 303.996094 12.285156 305.003906 C 12.394531 306.011719 12.671875 307.738281 12.898438 308.839844 C 13.125 309.945312 13.4375 311.984375 13.59375 313.378906 C 13.75 314.769531 13.992188 316.410156 14.128906 317.019531 C 14.269531 317.632812 14.539062 319.558594 14.730469 321.296875 C 14.921875 323.03125 15.234375 325.003906 15.421875 325.675781 C 15.609375 326.347656 15.882812 327.605469 16.027344 328.472656 C 16.175781 329.339844 16.445312 330.636719 16.628906 331.351562 C 16.808594 332.066406 17.054688 333.320312 17.167969 334.136719 C 17.28125 334.953125 17.53125 336.199219 17.71875 336.910156 C 17.90625 337.621094 18.214844 339.019531 18.40625 340.011719 C 18.613281 341.074219 19.148438 342.832031 19.707031 344.261719 C 20.230469 345.605469 20.785156 347.152344 20.941406 347.703125 C 21.277344 348.871094 22.25 350.753906 23.535156 352.714844 C 24.039062 353.484375 24.625 354.402344 24.835938 354.757812 C 25.332031 355.585938 28.757812 358.449219 29.863281 358.953125 C 31.074219 359.507812 32.972656 359.476562 34.292969 358.875 C 35.230469 358.449219 38.128906 356.09375 38.636719 355.347656 C 38.90625 354.953125 40.832031 352.910156 41.746094 352.054688 C 42.058594 351.765625 42.316406 351.453125 42.316406 351.363281 C 42.316406 351.199219 42.535156 350.945312 44.691406 348.636719 C 45.871094 347.371094 46.902344 346.199219 48.132812 344.71875 C 48.4375 344.351562 48.996094 343.726562 49.371094 343.324219 C 49.746094 342.925781 50.414062 342.117188 50.855469 341.527344 C 51.78125 340.289062 53.402344 338.378906 54.902344 336.753906 C 55.476562 336.128906 56.515625 334.9375 57.207031 334.109375 C 60.441406 330.226562 61.089844 329.472656 61.675781 328.878906 C 62.609375 327.949219 63.148438 327.304688 63.445312 326.78125 C 63.585938 326.523438 65 324.847656 66.585938 323.054688 C 68.171875 321.261719 69.613281 319.566406 69.789062 319.289062 C 69.96875 319.011719 70.171875 318.785156 70.246094 318.785156 C 70.320312 318.785156 70.578125 318.492188 70.820312 318.128906 C 71.0625 317.769531 71.777344 316.945312 72.410156 316.292969 C 73.039062 315.644531 74.167969 314.386719 74.914062 313.503906 C 75.664062 312.617188 76.511719 311.652344 76.800781 311.355469 C 77.089844 311.058594 77.601562 310.445312 77.9375 309.992188 C 78.273438 309.539062 78.976562 308.761719 79.503906 308.265625 C 80.03125 307.765625 80.90625 306.769531 81.449219 306.050781 C 81.992188 305.332031 82.847656 304.308594 83.34375 303.78125 C 83.84375 303.253906 84.445312 302.546875 84.679688 302.210938 C 85.425781 301.140625 85.871094 300.566406 86.320312 300.101562 C 86.558594 299.851562 87.003906 299.339844 87.308594 298.964844 C 87.617188 298.59375 88.808594 297.148438 89.964844 295.757812 C 92.921875 292.191406 92.882812 292.238281 93.351562 291.660156 C 94.367188 290.410156 94.617188 289.136719 94.078125 288 C 93.835938 287.488281 91.359375 284.632812 89.492188 282.710938 C 89.089844 282.300781 88.460938 281.554688 88.089844 281.054688 C 87.71875 280.554688 87.097656 279.816406 86.707031 279.417969 C 86.316406 279.019531 85.46875 277.921875 84.820312 276.976562 C 84.167969 276.03125 83.207031 274.632812 82.679688 273.863281 C 82.15625 273.097656 81.550781 272.234375 81.339844 271.945312 C 81.128906 271.65625 80.914062 271.304688 80.863281 271.160156 C 80.8125 271.015625 80.3125 270.246094 79.746094 269.449219 C 79.183594 268.652344 78.601562 267.789062 78.457031 267.53125 C 78.3125 267.273438 77.800781 266.480469 77.320312 265.773438 C 76.84375 265.066406 76.332031 264.28125 76.1875 264.027344 C 76.042969 263.777344 75.652344 263.140625 75.320312 262.613281 C 74.988281 262.085938 74.613281 261.457031 74.492188 261.21875 C 74.371094 260.976562 74.121094 260.546875 73.941406 260.257812 C 72.636719 258.179688 71.347656 255.855469 70.945312 254.851562 C 70.789062 254.464844 70.179688 253.265625 69.585938 252.183594 C 68.992188 251.101562 68.507812 250.179688 68.507812 250.140625 C 68.507812 250.097656 67.453125 247.921875 66.167969 245.304688 C 64.878906 242.6875 63.734375 240.191406 63.625 239.761719 C 63.515625 239.328125 63.238281 238.503906 63.011719 237.929688 C 62.785156 237.351562 62.484375 236.527344 62.339844 236.097656 C 62.199219 235.664062 61.710938 234.449219 61.257812 233.394531 C 60.800781 232.335938 60.28125 230.886719 60.097656 230.164062 C 59.917969 229.445312 59.574219 228.191406 59.332031 227.375 C 59.09375 226.558594 58.898438 225.769531 58.902344 225.617188 C 58.902344 225.464844 58.667969 224.503906 58.378906 223.476562 C 58.089844 222.453125 57.738281 220.886719 57.597656 220 C 57.457031 219.117188 57.152344 217.683594 56.917969 216.820312 C 56.316406 214.570312 55.757812 209.101562 55.398438 201.992188 C 55.167969 197.441406 55.289062 180.097656 55.566406 178.09375 C 55.660156 177.421875 55.820312 175.105469 55.929688 172.945312 C 56.121094 169.019531 56.597656 163.203125 56.742188 162.96875 C 56.785156 162.902344 57.015625 161.722656 57.253906 160.351562 C 57.6875 157.878906 58.273438 155.234375 58.945312 152.710938 C 59.136719 151.992188 59.570312 150.226562 59.90625 148.785156 C 60.242188 147.347656 60.828125 145.265625 61.210938 144.164062 C 62.960938 139.09375 63.277344 138.140625 63.546875 137.046875 C 63.707031 136.402344 64.0625 135.40625 64.335938 134.828125 C 64.609375 134.253906 65.257812 132.722656 65.78125 131.429688 C 67.316406 127.613281 67.90625 126.277344 68.691406 124.84375 C 70.191406 122.105469 71.125 120.277344 71.125 120.089844 C 71.125 119.984375 71.589844 119.214844 72.15625 118.378906 C 72.722656 117.546875 73.574219 116.117188 74.046875 115.203125 C 74.519531 114.292969 75.433594 112.78125 76.074219 111.847656 C 76.714844 110.914062 77.238281 110.121094 77.238281 110.085938 C 77.238281 109.828125 79.167969 106.894531 79.855469 106.109375 C 80.328125 105.570312 80.890625 104.785156 81.105469 104.367188 C 81.527344 103.539062 82.148438 102.632812 82.765625 101.945312 C 83.574219 101.046875 85.21875 99.035156 85.910156 98.097656 C 87.214844 96.332031 90.265625 93.113281 96.546875 86.855469 C 101.457031 81.96875 104.339844 79.246094 105.207031 78.671875 C 105.53125 78.457031 105.851562 78.242188 106.171875 78.027344 C 106.402344 77.871094 107.265625 77.164062 108.09375 76.457031 C 108.917969 75.75 109.765625 75.050781 109.980469 74.90625 C 110.191406 74.761719 110.710938 74.417969 111.132812 74.140625 C 111.554688 73.867188 112.410156 73.226562 113.035156 72.722656 C 113.65625 72.214844 114.679688 71.507812 115.304688 71.144531 C 115.925781 70.785156 116.476562 70.429688 116.527344 70.359375 C 116.683594 70.125 118.511719 68.953125 120.367188 67.890625 C 122.511719 66.660156 123.976562 65.722656 124.125 65.480469 C 124.289062 65.21875 125.519531 64.605469 127.265625 63.921875 C 128.128906 63.582031 129.683594 62.84375 130.722656 62.28125 C 131.761719 61.722656 133.371094 60.957031 134.300781 60.582031 C 135.234375 60.207031 136.859375 59.476562 137.914062 58.953125 C 138.972656 58.433594 140.859375 57.683594 142.105469 57.285156 C 144.449219 56.539062 147.082031 55.636719 147.695312 55.367188 C 149.628906 54.511719 151.109375 54.117188 155.8125 53.1875 C 157.109375 52.933594 158.679688 52.582031 159.304688 52.410156 C 159.929688 52.234375 161.03125 51.972656 161.75 51.824219 C 162.46875 51.671875 163.765625 51.394531 164.632812 51.199219 C 165.496094 51.003906 167.066406 50.765625 168.125 50.664062 C 169.179688 50.566406 171.261719 50.363281 172.75 50.21875 C 174.238281 50.070312 176.597656 49.835938 177.988281 49.699219 C 180.859375 49.417969 182.472656 49.234375 185.847656 48.804688 C 189.308594 48.363281 203.289062 48.34375 206.449219 48.777344 C 208.671875 49.078125 211.265625 49.402344 215.179688 49.867188 C 216.382812 50.007812 219.171875 50.289062 221.378906 50.492188 C 223.796875 50.710938 226.054688 51.019531 227.054688 51.261719 C 227.96875 51.488281 229.027344 51.71875 229.410156 51.78125 C 230.285156 51.917969 233.699219 52.6875 235.4375 53.140625 C 236.15625 53.324219 237.804688 53.738281 239.101562 54.058594 C 241.484375 54.640625 244.089844 55.464844 244.449219 55.746094 C 244.664062 55.910156 247.308594 56.886719 249.40625 57.574219 C 250.125 57.8125 251.1875 58.230469 251.761719 58.503906 C 253.414062 59.289062 255.027344 60.003906 255.691406 60.242188 C 257.410156 60.863281 259.15625 61.617188 261.367188 62.699219 C 262.710938 63.359375 264.164062 64.0625 264.597656 64.261719 C 265.867188 64.859375 266.367188 65.167969 267.835938 66.269531 C 268.597656 66.84375 269.695312 67.550781 270.269531 67.847656 C 271.414062 68.433594 272.289062 68.996094 273.5 69.933594 C 274.851562 70.972656 275.742188 71.59375 275.890625 71.59375 C 276.125 71.59375 277.578125 72.671875 278.675781 73.667969 C 279.238281 74.175781 280.09375 74.820312 280.574219 75.09375 C 281.054688 75.371094 281.839844 75.949219 282.320312 76.378906 C 282.800781 76.8125 283.789062 77.617188 284.515625 78.171875 C 286.5625 79.730469 290.105469 82.683594 292.203125 84.578125 C 292.742188 85.0625 294.230469 86.402344 295.511719 87.554688 C 296.792969 88.707031 298.339844 90.15625 298.945312 90.78125 C 299.554688 91.40625 300.171875 92.035156 300.320312 92.175781 C 304.328125 96.085938 307.96875 100.082031 308.894531 101.585938 C 309.878906 103.183594 310.050781 103.617188 310.0625 104.5625 C 310.082031 105.695312 309.707031 106.402344 308.324219 107.878906 C 307.828125 108.40625 307.128906 109.230469 306.769531 109.710938 C 306.003906 110.722656 305.011719 111.613281 304.453125 111.789062 C 304.070312 111.910156 302.488281 113.6875 302.488281 113.996094 C 302.488281 114.078125 301.996094 114.457031 301.394531 114.835938 C 300.105469 115.648438 299.988281 115.753906 299.085938 116.921875 C 298.703125 117.417969 298.269531 117.820312 298.125 117.824219 C 297.792969 117.824219 295.867188 119.449219 295.464844 120.066406 C 295.304688 120.320312 294.457031 121.179688 293.589844 121.976562 C 292.722656 122.773438 292.011719 123.535156 292.011719 123.667969 C 292.011719 123.800781 291.683594 124.167969 291.28125 124.484375 C 290.878906 124.800781 287.871094 127.722656 284.601562 130.980469 C 281.328125 134.234375 277.433594 137.960938 275.945312 139.257812 C 274.457031 140.554688 272.960938 141.894531 272.625 142.234375 C 270.960938 143.910156 269.023438 145.5 268.300781 145.785156 C 267.863281 145.957031 267.058594 146.113281 266.519531 146.128906 C 265.128906 146.164062 264.492188 145.71875 262.234375 143.117188 C 261.191406 141.917969 260.125 140.699219 259.863281 140.414062 C 259.601562 140.125 259.046875 139.496094 258.628906 139.015625 C 256.515625 136.59375 252.273438 132.753906 248.511719 129.859375 C 246.292969 128.148438 243.867188 126.371094 243.757812 126.371094 C 243.605469 126.371094 241.527344 124.988281 240.238281 124.027344 C 239.660156 123.601562 238.71875 123.007812 238.144531 122.714844 C 236.886719 122.070312 236.328125 121.757812 235.175781 121.042969 C 234.128906 120.398438 231.816406 119.347656 230.722656 119.019531 C 230.289062 118.890625 229.109375 118.386719 228.101562 117.894531 C 227.09375 117.402344 225.953125 116.898438 225.570312 116.777344 C 225.1875 116.65625 224.441406 116.375 223.910156 116.152344 C 223.382812 115.925781 222.402344 115.625 221.730469 115.480469 C 221.058594 115.332031 220.058594 115.054688 219.507812 114.859375 C 218.957031 114.664062 218.351562 114.507812 218.164062 114.507812 C 217.976562 114.507812 217.773438 114.429688 217.714844 114.332031 C 217.652344 114.234375 217.386719 114.15625 217.121094 114.15625 C 216.855469 114.15625 216.0625 113.960938 215.359375 113.722656 C 214.609375 113.46875 212.921875 113.140625 211.300781 112.929688 C 209.769531 112.734375 207.917969 112.460938 207.179688 112.320312 C 204.214844 111.761719 193.359375 111.515625 187.945312 111.890625 C 182.980469 112.230469 177.425781 113.351562 172.488281 115.003906 C 171.914062 115.195312 171.085938 115.46875 170.65625 115.605469 C 169.167969 116.085938 168.117188 116.539062 164.195312 118.394531 C 163.28125 118.824219 162.339844 119.238281 162.097656 119.308594 C 161.859375 119.382812 161.152344 119.753906 160.527344 120.140625 C 159.902344 120.523438 158.960938 121.085938 158.433594 121.390625 C 157.203125 122.09375 156.015625 122.933594 153.46875 124.886719 C 152.339844 125.75 151.21875 126.585938 150.972656 126.746094 C 150.726562 126.90625 150.078125 127.441406 149.527344 127.9375 C 148.980469 128.433594 148.304688 128.984375 148.023438 129.160156 C 146.902344 129.886719 140.25 136.664062 139.898438 137.445312 C 139.738281 137.804688 139.523438 138.097656 137.761719 140.410156 C 137.195312 141.152344 136.539062 142.121094 136.304688 142.566406 C 136.066406 143.011719 135.800781 143.46875 135.707031 143.578125 C 135.617188 143.691406 135.324219 144.203125 135.054688 144.714844 C 134.789062 145.226562 134.164062 146.300781 133.667969 147.097656 C 133.171875 147.894531 132.765625 148.625 132.765625 148.714844 C 132.765625 148.804688 132.695312 149.015625 132.613281 149.179688 C 132.527344 149.347656 132.140625 150.152344 131.75 150.964844 C 131.335938 151.832031 130.921875 152.699219 130.507812 153.566406 C 130.210938 154.183594 129.96875 154.792969 129.96875 154.929688 C 129.96875 155.0625 129.742188 155.773438 129.46875 156.515625 C 128.960938 157.863281 127.988281 160.886719 127.015625 164.136719 C 126.726562 165.097656 126.371094 166.636719 126.226562 167.5625 C 126.078125 168.488281 125.839844 169.703125 125.6875 170.265625 C 125.332031 171.609375 124.613281 178.597656 124.390625 182.890625 C 124.179688 186.933594 124.171875 194.273438 124.375 196.234375 C 124.457031 197.003906 124.695312 199.320312 124.902344 201.382812 C 125.113281 203.445312 125.347656 205.289062 125.425781 205.480469 C 125.578125 205.851562 125.996094 207.890625 126.304688 209.753906 C 126.519531 211.066406 127.324219 213.714844 128.164062 215.886719 C 128.484375 216.714844 128.75 217.519531 128.75 217.675781 C 128.75 218.246094 130.316406 221.9375 131.679688 224.582031 C 133.414062 227.949219 133.40625 227.9375 134.230469 229.207031 C 135.644531 231.382812 136.039062 232.015625 136.328125 232.578125 C 136.660156 233.214844 137.308594 234.09375 138.855469 235.984375 C 139.414062 236.671875 140 237.464844 140.15625 237.753906 C 140.308594 238.042969 140.910156 238.75 141.488281 239.324219 C 142.070312 239.898438 142.542969 240.421875 142.542969 240.480469 C 142.542969 240.648438 146.632812 244.367188 148.5625 245.953125 C 149.496094 246.71875 151.003906 247.871094 151.914062 248.507812 C 152.828125 249.148438 153.742188 249.824219 153.949219 250.011719 C 154.511719 250.519531 156.449219 251.757812 157.550781 252.320312 C 158.082031 252.589844 159.40625 253.320312 160.484375 253.941406 C 161.566406 254.566406 162.980469 255.289062 163.628906 255.554688 C 164.886719 256.074219 167.605469 257.25 168.476562 257.65625 C 168.765625 257.792969 169.789062 258.132812 170.746094 258.410156 C 171.703125 258.683594 172.710938 259 172.984375 259.105469 C 173.257812 259.214844 174.082031 259.425781 174.816406 259.578125 C 175.554688 259.730469 176.46875 259.96875 176.855469 260.109375 C 177.238281 260.25 178.796875 260.714844 180.320312 261.140625 C 184.152344 262.214844 187.152344 262.476562 195.710938 262.5 C 203.789062 262.519531 208.589844 262.183594 212.988281 261.289062 C 216.269531 260.625 217.195312 260.40625 217.714844 260.175781 C 217.90625 260.089844 218.683594 259.890625 219.445312 259.726562 C 220.78125 259.445312 221.199219 259.332031 224.480469 258.347656 C 225.320312 258.097656 226.773438 257.535156 227.710938 257.101562 C 228.644531 256.664062 229.882812 256.152344 230.460938 255.960938 C 231.035156 255.769531 232.066406 255.34375 232.75 255.011719 C 233.433594 254.683594 234.042969 254.414062 234.105469 254.414062 C 234.164062 254.414062 234.597656 254.136719 235.066406 253.800781 C 235.535156 253.464844 236.65625 252.824219 237.554688 252.378906 C 239.359375 251.484375 239.503906 251.390625 241.855469 249.574219 C 242.753906 248.878906 243.566406 248.308594 243.65625 248.308594 C 243.820312 248.308594 244.941406 247.375 249.300781 243.605469 C 251.890625 241.367188 254.898438 238.332031 257.960938 234.875 C 258.769531 233.964844 260.0625 232.546875 260.835938 231.730469 C 261.605469 230.910156 262.769531 229.640625 263.417969 228.90625 C 265.289062 226.789062 267.4375 225.882812 269.550781 226.324219 C 270.640625 226.550781 272.175781 227.308594 273.210938 228.136719 C 274.046875 228.808594 282.292969 237.078125 282.695312 237.652344 C 282.855469 237.878906 283.308594 238.347656 283.699219 238.691406 C 284.09375 239.035156 284.847656 239.789062 285.375 240.363281 C 285.902344 240.9375 286.800781 241.84375 287.371094 242.371094 C 287.9375 242.902344 288.527344 243.488281 288.679688 243.675781 C 288.832031 243.859375 289.382812 244.410156 289.902344 244.894531 C 291.734375 246.601562 294.539062 249.28125 295.757812 250.488281 C 296.433594 251.160156 297.300781 251.972656 297.683594 252.292969 C 298.070312 252.613281 298.972656 253.445312 299.691406 254.140625 C 300.414062 254.835938 301.332031 255.644531 301.734375 255.929688 C 302.425781 256.425781 303.625 257.539062 306.945312 260.78125 C 307.734375 261.546875 308.929688 262.707031 309.605469 263.355469 C 311.394531 265.070312 311.660156 266.011719 311.121094 268.683594 C 310.796875 270.261719 310.398438 271.101562 309.40625 272.292969 C 309.003906 272.773438 308.40625 273.542969 308.070312 274 C 306.839844 275.695312 306.429688 276.175781 304.332031 278.398438 C 302.953125 279.859375 301.578125 281.324219 300.199219 282.789062 C 299.105469 283.953125 297.71875 285.308594 297.121094 285.800781 C 296.519531 286.292969 295.855469 286.929688 295.644531 287.214844 C 295.433594 287.5 294.667969 288.238281 293.941406 288.851562 C 293.214844 289.464844 292.230469 290.347656 291.75 290.8125 C 290.710938 291.820312 289.183594 293.132812 287.703125 294.300781 C 285.972656 295.660156 283.445312 297.773438 282.40625 298.730469 C 281.878906 299.214844 281.109375 299.804688 280.699219 300.035156 C 280.285156 300.265625 279.367188 300.949219 278.652344 301.550781 C 277.070312 302.890625 276.511719 303.3125 275.945312 303.605469 C 275.417969 303.875 273.132812 305.507812 272.890625 305.789062 C 272.605469 306.117188 270.308594 307.453125 269.835938 307.566406 C 269.59375 307.625 268.726562 308.160156 267.910156 308.753906 C 267.089844 309.351562 266.234375 309.898438 266.003906 309.972656 C 265.777344 310.042969 265.207031 310.328125 264.738281 310.605469 C 264.265625 310.882812 263.804688 311.109375 263.710938 311.109375 C 263.476562 311.109375 261.628906 312.109375 259.921875 313.160156 C 259.417969 313.472656 258.90625 313.726562 258.789062 313.726562 C 258.667969 313.726562 258.316406 313.882812 258.003906 314.074219 C 257.6875 314.265625 256.964844 314.578125 256.398438 314.769531 C 255.828125 314.960938 254.511719 315.546875 253.476562 316.070312 C 252.4375 316.59375 250.761719 317.265625 249.753906 317.5625 C 247.160156 318.320312 246.183594 318.636719 243.117188 319.707031 C 241.628906 320.230469 239.667969 320.792969 238.753906 320.960938 C 237.839844 321.128906 236.152344 321.484375 235 321.753906 C 233.847656 322.019531 232.550781 322.289062 232.117188 322.351562 C 231.332031 322.460938 229.660156 322.832031 225.394531 323.828125 C 222.390625 324.535156 221.375 324.679688 218.0625 324.894531 C 216.527344 324.992188 214.207031 325.226562 212.910156 325.414062 C 210.761719 325.722656 208.519531 325.925781 201.46875 326.453125 C 198.007812 326.710938 192.851562 326.679688 188.464844 326.375 C 181.472656 325.886719 179.828125 325.753906 177.550781 325.503906 C 176.304688 325.363281 173.355469 325.128906 171.003906 324.980469 C 166.117188 324.675781 164.507812 324.488281 162.535156 323.992188 C 161.765625 323.796875 160.390625 323.488281 159.480469 323.308594 C 158.566406 323.128906 156.683594 322.667969 155.289062 322.289062 C 154.066406 321.957031 152.84375 321.628906 151.621094 321.300781 C 148.886719 320.578125 148.121094 320.351562 146.558594 319.78125 C 145.644531 319.449219 144.703125 319.101562 144.464844 319.003906 C 143.6875 318.691406 142.304688 318.589844 141.339844 318.777344 C 140.425781 318.953125 136.316406 321.089844 135.191406 321.972656 C 133.394531 323.382812 131.496094 324.730469 130.941406 324.988281 C 130.648438 325.125 130.054688 325.507812 129.621094 325.839844 C 129.1875 326.171875 128.167969 326.890625 127.351562 327.4375 C 126.535156 327.980469 125.433594 328.726562 124.90625 329.09375 C 124.378906 329.464844 123.042969 330.367188 121.9375 331.101562 C 120.835938 331.839844 119.734375 332.589844 119.492188 332.765625 C 119.117188 333.050781 115.824219 335.300781 114.6875 336.054688 C 114.472656 336.199219 113.636719 336.777344 112.835938 337.339844 C 112.03125 337.90625 111.257812 338.410156 111.113281 338.460938 C 110.722656 338.605469 108.359375 340.207031 108.230469 340.417969 C 108.171875 340.515625 107.832031 340.757812 107.476562 340.953125 C 105.390625 342.113281 104.472656 342.664062 103.726562 343.207031 C 102.515625 344.09375 100.6875 345.226562 99.648438 345.738281 C 99.152344 345.984375 98.234375 346.601562 97.609375 347.113281 C 96.984375 347.625 95.796875 348.410156 94.964844 348.859375 C 93.648438 349.570312 91.652344 350.851562 90.859375 351.496094 C 90.714844 351.613281 90.03125 352.003906 89.34375 352.367188 C 88.65625 352.730469 87.679688 353.335938 87.175781 353.71875 C 86.671875 354.097656 85.664062 354.726562 84.933594 355.113281 C 82.839844 356.226562 81.242188 357.175781 80.457031 357.773438 C 80.054688 358.078125 79.1875 358.628906 78.527344 358.996094 C 77.867188 359.359375 76.972656 359.945312 76.539062 360.296875 C 75.519531 361.121094 74.335938 361.855469 72.625 362.71875 C 71.039062 363.523438 69.492188 364.792969 69.246094 365.492188 C 69.046875 366.070312 69.234375 366.667969 69.695312 366.914062 C 70.15625 367.160156 71.832031 367.402344 74.707031 367.636719 C 76.050781 367.742188 78.171875 368.027344 79.421875 368.269531 C 83.386719 369.03125 88.769531 369.890625 91.207031 370.15625 C 92.503906 370.296875 94.746094 370.570312 96.1875 370.761719 C 97.957031 370.992188 100.75 371.164062 104.746094 371.285156 C 112.089844 371.5 113.5625 371.578125 118.273438 371.988281 C 120.335938 372.167969 123.242188 372.402344 124.730469 372.507812 C 126.222656 372.613281 128.460938 372.773438 129.707031 372.867188 C 130.957031 372.960938 133.863281 373.109375 136.167969 373.203125 C 140.203125 373.363281 142.933594 373.429688 155.636719 373.667969 C 158.855469 373.730469 172.882812 373.789062 186.808594 373.796875 C 206.941406 373.8125 214.292969 373.757812 222.714844 373.515625 C 228.539062 373.351562 233.410156 373.179688 233.539062 373.132812 C 233.671875 373.089844 236.722656 372.890625 240.324219 372.695312 C 247.417969 372.304688 249.96875 372.113281 253.070312 371.730469 C 254.175781 371.59375 256.847656 371.359375 259.007812 371.207031 C 261.167969 371.058594 264.117188 370.78125 265.558594 370.59375 C 266.996094 370.40625 270.21875 370.089844 272.714844 369.890625 C 275.210938 369.691406 277.648438 369.457031 278.128906 369.371094 C 278.609375 369.28125 280.296875 369.011719 281.882812 368.769531 C 283.46875 368.527344 285.511719 368.175781 286.421875 367.992188 C 287.335938 367.808594 288.828125 367.609375 289.742188 367.546875 C 292.324219 367.375 294.691406 367.125 297.160156 366.765625 C 298.410156 366.582031 300.335938 366.34375 301.441406 366.238281 C 302.542969 366.128906 304.15625 365.855469 305.019531 365.628906 C 305.882812 365.402344 306.945312 365.164062 307.375 365.101562 C 308.414062 364.949219 311.605469 364.3125 311.734375 364.234375 C 311.789062 364.199219 312.773438 364.046875 313.925781 363.890625 C 319.136719 363.195312 322.238281 362.496094 327.542969 360.832031 C 328.410156 360.558594 329.929688 360.167969 330.929688 359.964844 C 332.347656 359.671875 333.183594 359.367188 334.769531 358.566406 C 335.886719 358 337.542969 357.210938 338.457031 356.8125 C 340.570312 355.890625 341.628906 355.285156 343.019531 354.203125 C 343.632812 353.730469 344.4375 353.121094 344.808594 352.851562 C 345.183594 352.585938 345.691406 352.148438 345.945312 351.882812 C 346.195312 351.621094 347.089844 350.683594 347.929688 349.804688 C 348.769531 348.925781 349.457031 348.140625 349.457031 348.0625 C 349.457031 347.984375 349.871094 347.429688 350.375 346.828125 C 351.363281 345.652344 352.25 344.402344 352.25 344.191406 C 352.25 344.121094 352.492188 343.574219 352.789062 342.980469 C 353.085938 342.386719 353.527344 341.429688 353.769531 340.851562 C 354.011719 340.277344 354.390625 339.414062 354.609375 338.933594 C 355.445312 337.121094 355.933594 335.746094 356.25 334.3125 C 356.96875 331.042969 357.742188 327.992188 358.464844 325.589844 C 359.496094 322.148438 359.703125 321.125 360.101562 317.457031 C 360.292969 315.71875 360.597656 313.601562 360.785156 312.746094 C 360.972656 311.894531 361.179688 310.765625 361.246094 310.238281 C 361.3125 309.710938 361.550781 308.335938 361.773438 307.183594 C 362 306.03125 362.34375 303.976562 362.542969 302.609375 C 362.738281 301.246094 362.980469 299.773438 363.078125 299.335938 C 363.175781 298.902344 363.410156 297.035156 363.605469 295.1875 C 363.796875 293.34375 364.105469 291.085938 364.296875 290.175781 C 364.484375 289.265625 364.804688 287.339844 365.003906 285.902344 C 365.203125 284.460938 365.476562 282.8125 365.605469 282.238281 C 366.164062 279.753906 367.351562 270.207031 367.699219 265.394531 C 367.847656 263.335938 368.121094 260.359375 368.308594 258.773438 C 368.625 256.121094 368.792969 254.144531 369.449219 245.429688 C 369.816406 240.523438 370.335938 227.972656 370.695312 215.335938 C 370.746094 213.464844 370.851562 210.011719 370.921875 207.660156 C 370.996094 205.3125 371.070312 198.414062 371.085938 192.332031 C 371.101562 186.253906 371.148438 181.222656 371.191406 181.152344 C 371.332031 180.925781 370.761719 161.875 370.324219 152.1875 C 370.1875 149.164062 370.03125 145.042969 369.972656 143.027344 C 369.835938 138.144531 369.566406 132.460938 369.363281 130.207031 C 369.1875 128.273438 369.128906 127.449219 368.832031 122.96875 C 368.730469 121.433594 368.574219 119.546875 368.484375 118.78125 C 368.167969 116.078125 367.808594 112.296875 367.625 109.710938 C 367.523438 108.269531 367.394531 106.503906 367.339844 105.785156 C 367.238281 104.453125 366.808594 101.144531 366.652344 100.480469 C 366.558594 100.085938 366.324219 97.929688 366.039062 94.882812 C 365.941406 93.824219 365.707031 92.136719 365.523438 91.128906 C 365.335938 90.125 365.058594 88.277344 364.902344 87.03125 C 364.75 85.785156 364.519531 84.058594 364.386719 83.191406 C 364.257812 82.328125 363.980469 79.976562 363.777344 77.960938 C 363.433594 74.601562 362.820312 71.191406 361.6875 66.359375 C 361.496094 65.542969 361.253906 64.25 361.152344 63.480469 C 361.046875 62.714844 360.8125 61.53125 360.632812 60.855469 C 360.453125 60.179688 360.140625 58.648438 359.9375 57.453125 C 359.738281 56.257812 359.457031 54.984375 359.316406 54.625 C 359.175781 54.261719 358.867188 53.082031 358.636719 52.007812 C 358.402344 50.929688 358.097656 49.734375 357.957031 49.347656 C 357.820312 48.964844 357.652344 48.296875 357.585938 47.867188 C 357.519531 47.433594 357.242188 46.140625 356.96875 44.988281 C 356.699219 43.839844 356.382812 42.269531 356.269531 41.5 C 356.027344 39.890625 355.242188 37.328125 354.507812 35.742188 C 354.226562 35.136719 353.996094 34.554688 353.996094 34.449219 C 353.996094 34.230469 353.992188 34.222656 352.9375 32.089844 C 351.648438 29.492188 348.390625 25.886719 345.265625 23.601562 C 344.496094 23.042969 342.335938 21.875 341.078125 21.339844 C 340.546875 21.117188 339.371094 20.519531 338.457031 20.015625 C 337.429688 19.445312 335.632812 18.703125 333.742188 18.0625 C 332.0625 17.492188 329.769531 16.667969 328.648438 16.230469 C 327.210938 15.671875 325.976562 15.332031 324.457031 15.085938 C 323.273438 14.890625 322.03125 14.648438 321.695312 14.546875 C 321.359375 14.445312 320.335938 14.203125 319.425781 14.007812 C 318.511719 13.808594 317.097656 13.464844 316.28125 13.242188 C 312.882812 12.3125 309.957031 11.710938 307.648438 11.472656 C 306.296875 11.332031 304.644531 11.097656 303.972656 10.949219 C 303.300781 10.804688 301.882812 10.535156 300.828125 10.355469 C 299.773438 10.171875 298.082031 9.828125 297.074219 9.585938 C 293.84375 8.820312 288.855469 7.941406 286.160156 7.664062 C 283.386719 7.378906 279.574219 6.828125 274.550781 5.988281 C 272.867188 5.707031 269.921875 5.316406 268 5.117188 C 266.082031 4.917969 263.722656 4.652344 262.761719 4.519531 C 261.800781 4.390625 259.878906 4.234375 258.484375 4.175781 C 254.132812 3.988281 250.484375 3.734375 247.136719 3.382812 C 245.359375 3.199219 242.6875 2.960938 241.199219 2.859375 C 239.710938 2.753906 236.800781 2.519531 234.738281 2.332031 C 232.671875 2.148438 228.429688 1.917969 225.308594 1.820312 C 222.1875 1.722656 217.867188 1.558594 215.703125 1.460938 C 202.882812 0.878906 198.132812 0.734375 190.210938 0.691406 C 185.363281 0.664062 178.527344 0.699219 175.019531 0.773438 "/></g></g></svg>