<svg xmlns="http://www.w3.org/2000/svg" xmlns:xlink="http://www.w3.org/1999/xlink" width="2400" zoomAndPan="magnify" viewBox="0 0 1800 359.999987" height="480" preserveAspectRatio="xMidYMid meet" version="1.2"><defs><clipPath id="ba7e9eabbd"><path d="M 1416.605469 89 L 1599 89 L 1599 283.644531 L 1416.605469 283.644531 Z M 1416.605469 89 "/></clipPath><clipPath id="2f8a88c5d8"><path d="M 611.851562 88 L 799 88 L 799 285 L 611.851562 285 Z M 611.851562 88 "/></clipPath><clipPath id="cd8943ac80"><path d="M 835 78.527344 L 868 78.527344 L 868 284 L 835 284 Z M 835 78.527344 "/></clipPath><clipPath id="88480dac90"><path d="M 1192 127 L 1348.601562 127 L 1348.601562 286 L 1192 286 Z M 1192 127 "/></clipPath><clipPath id="1fb5c555e7"><path d="M 1362 126.492188 L 1403 126.492188 L 1403 283 L 1362 283 Z M 1362 126.492188 "/></clipPath><clipPath id="0ef1f57681"><path d="M 1362 69 L 1403 69 L 1403 116.894531 L 1362 116.894531 Z M 1362 69 "/></clipPath></defs><g id="60bc3e8d5e"><path style=" stroke:none;fill-rule:evenodd;fill:#000000;fill-opacity:1;" d="M 365.234375 3.246094 C 358.957031 3.378906 343.132812 3.957031 338.085938 4.238281 C 336.507812 4.324219 333.867188 4.542969 332.21875 4.722656 C 330.574219 4.902344 327.691406 5.132812 325.816406 5.230469 C 323.941406 5.332031 321.246094 5.554688 319.828125 5.730469 C 318.410156 5.90625 315.492188 6.167969 313.339844 6.308594 C 306.945312 6.730469 306.753906 6.742188 302.945312 7.082031 C 297.574219 7.5625 293.433594 8.03125 292.035156 8.316406 C 291.359375 8.457031 290.019531 8.675781 289.058594 8.808594 C 288.097656 8.941406 286.675781 9.160156 285.898438 9.300781 C 285.121094 9.4375 283.625 9.632812 282.570312 9.726562 C 278.683594 10.085938 277.453125 10.25 275.519531 10.65625 C 274.433594 10.886719 272.898438 11.179688 272.113281 11.304688 C 271.324219 11.433594 269.929688 11.6875 269.015625 11.875 C 265.328125 12.617188 263.574219 12.9375 261.03125 13.328125 C 258.429688 13.726562 254.964844 14.53125 252.46875 15.308594 C 251.78125 15.523438 250.734375 15.816406 250.136719 15.960938 C 249.542969 16.105469 248.644531 16.339844 248.144531 16.480469 C 247.640625 16.621094 246.515625 16.855469 245.648438 17 C 244.664062 17.167969 243.378906 17.550781 242.238281 18.015625 C 241.230469 18.429688 239.734375 19.007812 238.910156 19.308594 C 235.203125 20.648438 235.085938 20.707031 231.746094 22.832031 C 229.730469 24.109375 229.25 24.460938 228.351562 25.300781 C 227.847656 25.769531 227.140625 26.402344 226.777344 26.710938 C 226.15625 27.242188 224.128906 29.570312 223.164062 30.871094 C 222.507812 31.75 222.023438 32.628906 221.308594 34.21875 C 220.960938 34.996094 220.488281 36.015625 220.257812 36.480469 C 219.574219 37.867188 219.03125 39.523438 218.671875 41.296875 C 218.488281 42.210938 218.09375 43.859375 217.792969 44.960938 C 217.488281 46.058594 217.148438 47.371094 217.035156 47.875 C 216.921875 48.378906 216.769531 48.910156 216.695312 49.054688 C 216.46875 49.492188 215.261719 55.777344 214.902344 58.378906 C 214.714844 59.710938 214.367188 61.660156 214.121094 62.707031 C 213.875 63.757812 213.5 65.363281 213.285156 66.277344 C 213.070312 67.195312 212.777344 68.992188 212.636719 70.277344 C 212.492188 71.558594 212.191406 73.65625 211.96875 74.9375 C 211.746094 76.222656 211.480469 77.871094 211.378906 78.605469 C 211.28125 79.335938 211.058594 80.535156 210.890625 81.269531 C 210.722656 82 210.457031 83.460938 210.304688 84.515625 C 210.152344 85.570312 209.878906 87.054688 209.699219 87.8125 C 209.519531 88.570312 209.230469 90.40625 209.050781 91.894531 C 208.875 93.378906 208.542969 95.792969 208.320312 97.257812 C 207.894531 100.003906 207.03125 106.171875 206.722656 108.667969 C 206.625 109.445312 206.398438 110.628906 206.21875 111.296875 C 205.726562 113.125 205.601562 114.257812 205.230469 120.074219 C 205.042969 123.007812 204.78125 126.714844 204.648438 128.320312 C 204.515625 129.921875 204.328125 132.882812 204.230469 134.898438 C 204.136719 136.914062 204.023438 138.75 203.980469 138.980469 C 203.851562 139.667969 203.433594 145.488281 203.246094 149.222656 C 202.445312 164.929688 202.347656 168.601562 202.335938 183.699219 C 202.320312 199.621094 202.371094 204.617188 202.59375 208.765625 C 202.871094 213.9375 203.589844 224.394531 203.820312 226.585938 C 204.183594 230.050781 204.375 232.394531 204.566406 235.664062 C 204.660156 237.3125 204.84375 239.972656 204.972656 241.578125 C 205.105469 243.179688 205.253906 245.578125 205.3125 246.90625 C 205.589844 253.566406 206.359375 261.621094 207.226562 266.976562 C 207.40625 268.074219 207.628906 269.875 207.730469 270.972656 C 207.957031 273.542969 208.148438 275.320312 208.550781 278.71875 C 208.730469 280.230469 208.996094 283.113281 209.140625 285.128906 C 209.285156 287.144531 209.546875 289.507812 209.71875 290.375 C 209.890625 291.246094 210.117188 292.746094 210.222656 293.707031 C 210.328125 294.667969 210.589844 296.320312 210.808594 297.371094 C 211.023438 298.425781 211.324219 300.375 211.472656 301.703125 C 211.621094 303.03125 211.847656 304.597656 211.980469 305.183594 C 212.113281 305.765625 212.371094 307.605469 212.554688 309.261719 C 212.734375 310.921875 213.03125 312.804688 213.210938 313.445312 C 213.390625 314.085938 213.648438 315.289062 213.789062 316.117188 C 213.929688 316.945312 214.1875 318.179688 214.359375 318.863281 C 214.535156 319.546875 214.765625 320.742188 214.875 321.523438 C 214.984375 322.300781 215.21875 323.492188 215.398438 324.171875 C 215.578125 324.851562 215.871094 326.183594 216.054688 327.132812 C 216.25 328.148438 216.761719 329.824219 217.292969 331.191406 C 217.789062 332.472656 218.320312 333.949219 218.46875 334.476562 C 218.789062 335.59375 219.714844 337.386719 220.941406 339.261719 C 221.417969 339.992188 221.976562 340.871094 222.179688 341.210938 C 222.652344 342.003906 225.914062 344.734375 226.964844 345.214844 C 228.121094 345.746094 229.925781 345.714844 231.1875 345.140625 C 232.078125 344.734375 234.839844 342.488281 235.324219 341.773438 C 235.578125 341.394531 237.417969 339.445312 238.289062 338.628906 C 238.585938 338.351562 238.828125 338.054688 238.828125 337.96875 C 238.828125 337.8125 239.039062 337.570312 241.09375 335.367188 C 242.214844 334.160156 243.199219 333.039062 244.371094 331.628906 C 244.660156 331.277344 245.191406 330.675781 245.550781 330.296875 C 245.90625 329.914062 246.542969 329.140625 246.964844 328.578125 C 247.84375 327.398438 249.390625 325.574219 250.816406 324.019531 C 251.367188 323.425781 252.355469 322.289062 253.015625 321.496094 C 256.09375 317.789062 256.710938 317.066406 257.273438 316.503906 C 258.15625 315.613281 258.671875 315 258.953125 314.5 C 259.089844 314.253906 260.4375 312.652344 261.949219 310.941406 C 263.457031 309.230469 264.832031 307.613281 265 307.347656 C 265.167969 307.082031 265.363281 306.867188 265.433594 306.867188 C 265.503906 306.867188 265.75 306.585938 265.980469 306.242188 C 266.210938 305.898438 266.894531 305.109375 267.492188 304.488281 C 268.09375 303.867188 269.167969 302.667969 269.878906 301.824219 C 270.59375 300.976562 271.402344 300.054688 271.675781 299.769531 C 271.953125 299.488281 272.4375 298.902344 272.757812 298.472656 C 273.078125 298.039062 273.75 297.296875 274.253906 296.820312 C 274.753906 296.347656 275.585938 295.394531 276.105469 294.707031 C 276.625 294.019531 277.4375 293.046875 277.910156 292.542969 C 278.386719 292.039062 278.957031 291.363281 279.183594 291.042969 C 279.894531 290.019531 280.316406 289.472656 280.742188 289.027344 C 280.972656 288.789062 281.394531 288.300781 281.6875 287.945312 C 281.980469 287.585938 283.117188 286.207031 284.214844 284.878906 C 287.03125 281.476562 286.996094 281.519531 287.441406 280.964844 C 288.410156 279.773438 288.648438 278.558594 288.136719 277.476562 C 287.902344 276.984375 285.546875 274.261719 283.765625 272.425781 C 283.382812 272.03125 282.78125 271.320312 282.429688 270.839844 C 282.074219 270.363281 281.484375 269.664062 281.113281 269.28125 C 280.742188 268.898438 279.933594 267.851562 279.3125 266.949219 C 278.695312 266.046875 277.78125 264.710938 277.277344 263.976562 C 276.777344 263.246094 276.203125 262.421875 276 262.144531 C 275.800781 261.871094 275.597656 261.535156 275.546875 261.394531 C 275.5 261.257812 275.019531 260.523438 274.484375 259.765625 C 273.945312 259.003906 273.394531 258.179688 273.253906 257.929688 C 273.117188 257.683594 272.628906 256.929688 272.171875 256.253906 C 271.71875 255.578125 271.230469 254.828125 271.09375 254.585938 C 270.957031 254.347656 270.585938 253.738281 270.265625 253.234375 C 269.949219 252.730469 269.59375 252.132812 269.476562 251.902344 C 269.363281 251.675781 269.125 251.261719 268.953125 250.988281 C 267.710938 249.003906 266.484375 246.785156 266.097656 245.824219 C 265.953125 245.457031 265.371094 244.3125 264.804688 243.277344 C 264.238281 242.242188 263.777344 241.367188 263.777344 241.328125 C 263.777344 241.289062 262.773438 239.210938 261.546875 236.710938 C 260.320312 234.210938 259.230469 231.828125 259.125 231.417969 C 259.023438 231.003906 258.757812 230.21875 258.542969 229.667969 C 258.328125 229.117188 258.039062 228.332031 257.902344 227.917969 C 257.769531 227.507812 257.304688 226.34375 256.871094 225.335938 C 256.4375 224.328125 255.941406 222.941406 255.769531 222.257812 C 255.59375 221.570312 255.265625 220.371094 255.039062 219.589844 C 254.8125 218.8125 254.625 218.058594 254.628906 217.914062 C 254.628906 217.769531 254.40625 216.847656 254.128906 215.871094 C 253.855469 214.890625 253.519531 213.398438 253.386719 212.550781 C 253.25 211.707031 252.960938 210.339844 252.738281 209.515625 C 252.167969 207.367188 251.632812 202.144531 251.289062 195.359375 C 251.070312 191.015625 251.1875 174.457031 251.449219 172.539062 C 251.539062 171.898438 251.695312 169.6875 251.796875 167.625 C 251.980469 163.875 252.429688 158.324219 252.570312 158.101562 C 252.609375 158.035156 252.832031 156.910156 253.058594 155.601562 C 253.472656 153.242188 254.027344 150.714844 254.667969 148.304688 C 254.851562 147.621094 255.261719 145.933594 255.582031 144.558594 C 255.902344 143.183594 256.464844 141.199219 256.828125 140.144531 C 258.496094 135.304688 258.792969 134.394531 259.054688 133.351562 C 259.207031 132.734375 259.542969 131.785156 259.800781 131.234375 C 260.0625 130.683594 260.683594 129.222656 261.179688 127.988281 C 262.644531 124.34375 263.207031 123.070312 263.953125 121.703125 C 265.382812 119.085938 266.273438 117.339844 266.273438 117.164062 C 266.273438 117.0625 266.714844 116.328125 267.253906 115.53125 C 267.792969 114.730469 268.601562 113.367188 269.054688 112.496094 C 269.503906 111.628906 270.375 110.183594 270.984375 109.292969 C 271.59375 108.398438 272.09375 107.644531 272.09375 107.613281 C 272.09375 107.363281 273.929688 104.566406 274.585938 103.816406 C 275.035156 103.300781 275.570312 102.550781 275.777344 102.148438 C 276.179688 101.359375 276.773438 100.496094 277.359375 99.839844 C 278.128906 98.980469 279.695312 97.058594 280.355469 96.164062 C 281.597656 94.480469 284.5 91.40625 290.488281 85.433594 C 295.164062 80.765625 297.90625 78.164062 298.734375 77.617188 C 299.042969 77.414062 299.347656 77.207031 299.65625 77 C 299.875 76.851562 300.695312 76.179688 301.484375 75.503906 C 302.269531 74.828125 303.078125 74.160156 303.28125 74.023438 C 303.484375 73.886719 303.976562 73.558594 304.378906 73.292969 C 304.78125 73.027344 305.59375 72.417969 306.191406 71.9375 C 306.785156 71.453125 307.757812 70.777344 308.351562 70.433594 C 308.945312 70.085938 309.46875 69.75 309.515625 69.679688 C 309.667969 69.457031 311.40625 68.335938 313.175781 67.324219 C 315.21875 66.148438 316.613281 65.253906 316.753906 65.023438 C 316.910156 64.773438 318.085938 64.1875 319.746094 63.535156 C 320.570312 63.210938 322.050781 62.507812 323.039062 61.96875 C 324.027344 61.433594 325.5625 60.703125 326.449219 60.347656 C 327.335938 59.988281 328.886719 59.289062 329.890625 58.792969 C 330.898438 58.296875 332.695312 57.578125 333.882812 57.199219 C 336.117188 56.488281 338.621094 55.625 339.207031 55.367188 C 341.050781 54.550781 342.460938 54.171875 346.9375 53.289062 C 348.175781 53.042969 349.671875 52.707031 350.265625 52.542969 C 350.859375 52.378906 351.90625 52.125 352.59375 51.984375 C 353.28125 51.839844 354.515625 51.574219 355.339844 51.386719 C 356.160156 51.203125 357.660156 50.972656 358.664062 50.878906 C 359.671875 50.785156 361.65625 50.589844 363.074219 50.449219 C 364.492188 50.308594 366.734375 50.089844 368.0625 49.957031 C 370.796875 49.6875 372.335938 49.511719 375.546875 49.101562 C 378.847656 48.679688 392.160156 48.664062 395.171875 49.074219 C 397.289062 49.363281 399.757812 49.675781 403.488281 50.117188 C 404.632812 50.25 407.289062 50.519531 409.394531 50.710938 C 411.695312 50.921875 413.847656 51.214844 414.800781 51.449219 C 415.667969 51.664062 416.679688 51.882812 417.042969 51.941406 C 417.878906 52.074219 421.128906 52.808594 422.78125 53.238281 C 423.46875 53.417969 425.039062 53.8125 426.277344 54.117188 C 428.542969 54.675781 431.027344 55.460938 431.371094 55.726562 C 431.570312 55.886719 434.089844 56.820312 436.089844 57.476562 C 436.773438 57.703125 437.785156 58.101562 438.335938 58.363281 C 439.90625 59.113281 441.441406 59.792969 442.078125 60.023438 C 443.714844 60.613281 445.378906 61.335938 447.480469 62.367188 C 448.761719 62.996094 450.148438 63.667969 450.558594 63.859375 C 451.769531 64.429688 452.246094 64.722656 453.644531 65.777344 C 454.371094 66.324219 455.414062 67 455.964844 67.28125 C 457.050781 67.839844 457.886719 68.378906 459.042969 69.273438 C 460.328125 70.269531 461.175781 70.859375 461.316406 70.859375 C 461.542969 70.859375 462.921875 71.890625 463.96875 72.839844 C 464.507812 73.324219 465.320312 73.9375 465.777344 74.203125 C 466.234375 74.464844 466.984375 75.019531 467.441406 75.429688 C 467.898438 75.839844 468.839844 76.609375 469.535156 77.140625 C 471.484375 78.628906 474.859375 81.449219 476.855469 83.257812 C 477.367188 83.71875 478.785156 85 480.007812 86.097656 C 481.226562 87.199219 482.699219 88.585938 483.277344 89.179688 C 483.859375 89.773438 484.445312 90.375 484.585938 90.511719 C 488.40625 94.246094 491.871094 98.058594 492.753906 99.496094 C 493.691406 101.019531 493.855469 101.4375 493.867188 102.335938 C 493.882812 103.417969 493.53125 104.09375 492.210938 105.503906 C 491.742188 106.003906 491.074219 106.792969 490.730469 107.25 C 490.003906 108.21875 489.058594 109.066406 488.523438 109.238281 C 488.160156 109.351562 486.652344 111.046875 486.652344 111.34375 C 486.652344 111.421875 486.183594 111.785156 485.613281 112.144531 C 484.382812 112.921875 484.273438 113.023438 483.410156 114.136719 C 483.046875 114.609375 482.636719 114.996094 482.496094 114.996094 C 482.179688 115 480.347656 116.550781 479.964844 117.140625 C 479.808594 117.378906 479.003906 118.199219 478.175781 118.960938 C 477.347656 119.722656 476.671875 120.449219 476.671875 120.578125 C 476.671875 120.703125 476.359375 121.054688 475.976562 121.355469 C 475.59375 121.660156 472.730469 124.449219 469.613281 127.558594 C 466.496094 130.667969 462.789062 134.222656 461.371094 135.460938 C 459.953125 136.699219 458.527344 137.976562 458.207031 138.304688 C 456.621094 139.902344 454.777344 141.421875 454.089844 141.695312 C 453.671875 141.859375 452.90625 142.007812 452.390625 142.019531 C 451.066406 142.058594 450.460938 141.632812 448.308594 139.144531 C 447.316406 138 446.300781 136.839844 446.050781 136.5625 C 445.800781 136.289062 445.269531 135.691406 444.875 135.230469 C 442.863281 132.917969 438.820312 129.25 435.238281 126.488281 C 433.121094 124.855469 430.8125 123.15625 430.710938 123.15625 C 430.566406 123.15625 428.585938 121.839844 427.355469 120.921875 C 426.808594 120.515625 425.910156 119.949219 425.359375 119.667969 C 424.164062 119.050781 423.632812 118.753906 422.535156 118.070312 C 421.539062 117.457031 419.332031 116.449219 418.292969 116.140625 C 417.878906 116.019531 416.757812 115.535156 415.796875 115.0625 C 414.835938 114.59375 413.75 114.117188 413.386719 114 C 413.019531 113.882812 412.308594 113.613281 411.804688 113.402344 C 411.300781 113.1875 410.367188 112.898438 409.726562 112.757812 C 409.085938 112.621094 408.132812 112.355469 407.609375 112.167969 C 407.085938 111.984375 406.511719 111.832031 406.332031 111.832031 C 406.152344 111.832031 405.957031 111.757812 405.902344 111.664062 C 405.84375 111.574219 405.589844 111.496094 405.339844 111.496094 C 405.085938 111.496094 404.328125 111.3125 403.65625 111.082031 C 402.945312 110.839844 401.339844 110.527344 399.792969 110.328125 C 398.335938 110.140625 396.570312 109.878906 395.867188 109.746094 C 393.046875 109.210938 382.703125 108.976562 377.546875 109.332031 C 372.816406 109.660156 367.523438 110.726562 362.824219 112.304688 C 362.273438 112.488281 361.488281 112.75 361.078125 112.882812 C 359.660156 113.339844 358.65625 113.769531 354.921875 115.542969 C 354.054688 115.953125 353.15625 116.347656 352.925781 116.417969 C 352.699219 116.484375 352.023438 116.84375 351.429688 117.207031 C 350.835938 117.574219 349.9375 118.113281 349.433594 118.402344 C 348.261719 119.074219 347.128906 119.875 344.703125 121.742188 C 343.632812 122.566406 342.5625 123.363281 342.328125 123.519531 C 342.09375 123.671875 341.476562 124.183594 340.953125 124.652344 C 340.429688 125.125 339.785156 125.652344 339.519531 125.824219 C 338.449219 126.515625 332.117188 132.984375 331.78125 133.730469 C 331.625 134.074219 331.425781 134.355469 329.742188 136.5625 C 329.207031 137.269531 328.582031 138.195312 328.355469 138.621094 C 328.128906 139.046875 327.875 139.484375 327.789062 139.589844 C 327.699219 139.695312 327.421875 140.183594 327.167969 140.671875 C 326.910156 141.160156 326.316406 142.183594 325.84375 142.945312 C 325.371094 143.710938 324.984375 144.402344 324.984375 144.488281 C 324.984375 144.578125 324.917969 144.777344 324.839844 144.9375 C 324.757812 145.09375 324.390625 145.863281 324.019531 146.640625 C 323.625 147.46875 323.230469 148.296875 322.835938 149.125 C 322.554688 149.710938 322.324219 150.296875 322.324219 150.421875 C 322.324219 150.550781 322.105469 151.230469 321.84375 151.9375 C 321.363281 153.226562 320.433594 156.113281 319.507812 159.214844 C 319.234375 160.132812 318.894531 161.605469 318.757812 162.488281 C 318.617188 163.371094 318.386719 164.53125 318.246094 165.066406 C 317.90625 166.347656 317.21875 173.019531 317.007812 177.121094 C 316.804688 180.980469 316.800781 187.988281 316.996094 189.863281 C 317.070312 190.59375 317.296875 192.804688 317.496094 194.773438 C 317.695312 196.746094 317.921875 198.503906 317.996094 198.6875 C 318.140625 199.042969 318.535156 200.988281 318.828125 202.769531 C 319.035156 204.019531 319.800781 206.550781 320.601562 208.621094 C 320.910156 209.414062 321.160156 210.183594 321.160156 210.332031 C 321.160156 210.875 322.652344 214.402344 323.949219 216.925781 C 325.601562 220.140625 325.597656 220.128906 326.382812 221.339844 C 327.726562 223.417969 328.101562 224.023438 328.378906 224.558594 C 328.695312 225.167969 329.3125 226.003906 330.785156 227.8125 C 331.316406 228.464844 331.875 229.226562 332.023438 229.5 C 332.171875 229.777344 332.746094 230.449219 333.296875 231 C 333.847656 231.550781 334.296875 232.046875 334.296875 232.105469 C 334.296875 232.265625 338.195312 235.816406 340.03125 237.328125 C 340.921875 238.0625 342.359375 239.160156 343.226562 239.769531 C 344.09375 240.378906 344.96875 241.023438 345.164062 241.203125 C 345.699219 241.6875 347.542969 242.875 348.59375 243.40625 C 349.101562 243.667969 350.359375 244.363281 351.390625 244.957031 C 352.421875 245.550781 353.769531 246.246094 354.382812 246.5 C 355.582031 246.992188 358.171875 248.117188 359 248.503906 C 359.277344 248.632812 360.25 248.957031 361.164062 249.222656 C 362.078125 249.484375 363.035156 249.785156 363.296875 249.886719 C 363.554688 249.992188 364.34375 250.191406 365.042969 250.335938 C 365.742188 250.480469 366.617188 250.710938 366.980469 250.847656 C 367.347656 250.980469 368.832031 251.421875 370.28125 251.828125 C 373.933594 252.855469 376.789062 253.105469 384.945312 253.128906 C 392.640625 253.148438 397.210938 252.828125 401.402344 251.972656 C 404.527344 251.335938 405.410156 251.128906 405.902344 250.90625 C 406.085938 250.828125 406.828125 250.632812 407.550781 250.480469 C 408.824219 250.210938 409.222656 250.101562 412.34375 249.164062 C 413.144531 248.925781 414.53125 248.386719 415.421875 247.972656 C 416.316406 247.558594 417.492188 247.066406 418.042969 246.882812 C 418.589844 246.703125 419.574219 246.292969 420.226562 245.980469 C 420.878906 245.664062 421.457031 245.40625 421.515625 245.40625 C 421.570312 245.40625 421.984375 245.144531 422.429688 244.824219 C 422.878906 244.5 423.945312 243.890625 424.800781 243.464844 C 426.519531 242.609375 426.65625 242.519531 428.894531 240.785156 C 429.753906 240.121094 430.527344 239.578125 430.613281 239.578125 C 430.769531 239.578125 431.835938 238.6875 435.988281 235.085938 C 438.457031 232.949219 441.320312 230.054688 444.238281 226.753906 C 445.007812 225.882812 446.238281 224.53125 446.976562 223.75 C 447.710938 222.964844 448.820312 221.753906 449.4375 221.054688 C 451.21875 219.03125 453.265625 218.167969 455.277344 218.585938 C 456.316406 218.804688 457.777344 219.53125 458.761719 220.320312 C 459.5625 220.960938 467.417969 228.859375 467.800781 229.40625 C 467.953125 229.621094 468.382812 230.070312 468.757812 230.398438 C 469.128906 230.726562 469.847656 231.441406 470.351562 231.992188 C 470.855469 232.542969 471.710938 233.40625 472.253906 233.910156 C 472.792969 234.417969 473.355469 234.976562 473.5 235.15625 C 473.644531 235.332031 474.167969 235.855469 474.664062 236.320312 C 476.410156 237.949219 479.082031 240.507812 480.238281 241.660156 C 480.886719 242.300781 481.710938 243.074219 482.078125 243.382812 C 482.445312 243.6875 483.304688 244.484375 483.992188 245.148438 C 484.675781 245.8125 485.550781 246.582031 485.9375 246.855469 C 486.59375 247.328125 487.734375 248.390625 490.898438 251.488281 C 491.648438 252.21875 492.789062 253.328125 493.433594 253.945312 C 495.136719 255.582031 495.390625 256.480469 494.875 259.03125 C 494.566406 260.539062 494.1875 261.339844 493.242188 262.480469 C 492.859375 262.9375 492.289062 263.671875 491.96875 264.109375 C 490.796875 265.726562 490.40625 266.1875 488.410156 268.308594 C 487.097656 269.703125 485.785156 271.097656 484.472656 272.496094 C 483.429688 273.609375 482.109375 274.90625 481.539062 275.375 C 480.96875 275.84375 480.335938 276.453125 480.132812 276.726562 C 479.933594 276.996094 479.203125 277.699219 478.511719 278.285156 C 477.820312 278.871094 476.878906 279.714844 476.421875 280.160156 C 475.433594 281.121094 473.980469 282.375 472.566406 283.488281 C 470.917969 284.789062 468.511719 286.808594 467.523438 287.71875 C 467.019531 288.183594 466.289062 288.742188 465.898438 288.964844 C 465.503906 289.183594 464.628906 289.835938 463.949219 290.414062 C 462.441406 291.691406 461.910156 292.09375 461.371094 292.371094 C 460.867188 292.632812 458.691406 294.191406 458.460938 294.457031 C 458.1875 294.769531 456 296.042969 455.550781 296.152344 C 455.320312 296.207031 454.496094 296.71875 453.714844 297.289062 C 452.933594 297.859375 452.117188 298.382812 451.902344 298.449219 C 451.683594 298.519531 451.140625 298.792969 450.691406 299.058594 C 450.246094 299.320312 449.804688 299.539062 449.714844 299.539062 C 449.492188 299.539062 447.730469 300.492188 446.109375 301.496094 C 445.625 301.792969 445.140625 302.035156 445.027344 302.035156 C 444.914062 302.035156 444.578125 302.1875 444.277344 302.367188 C 443.980469 302.550781 443.292969 302.847656 442.75 303.03125 C 442.207031 303.214844 440.953125 303.773438 439.964844 304.273438 C 438.976562 304.773438 437.382812 305.414062 436.421875 305.699219 C 433.949219 306.421875 433.023438 306.722656 430.101562 307.746094 C 428.683594 308.246094 426.8125 308.78125 425.941406 308.941406 C 425.074219 309.105469 423.464844 309.445312 422.367188 309.699219 C 421.269531 309.953125 420.035156 310.210938 419.621094 310.269531 C 418.875 310.375 417.28125 310.726562 413.21875 311.679688 C 410.355469 312.355469 409.390625 312.492188 406.234375 312.699219 C 404.769531 312.792969 402.5625 313.015625 401.328125 313.195312 C 399.28125 313.488281 397.144531 313.683594 390.425781 314.1875 C 387.128906 314.433594 382.21875 314.402344 378.042969 314.113281 C 371.378906 313.644531 369.8125 313.519531 367.648438 313.277344 C 366.457031 313.144531 363.652344 312.921875 361.410156 312.78125 C 356.753906 312.492188 355.21875 312.3125 353.34375 311.835938 C 352.609375 311.652344 351.300781 311.359375 350.433594 311.183594 C 349.5625 311.011719 347.765625 310.574219 346.441406 310.210938 C 345.277344 309.894531 344.113281 309.582031 342.949219 309.269531 C 340.34375 308.578125 339.613281 308.359375 338.125 307.816406 C 337.253906 307.5 336.355469 307.167969 336.128906 307.074219 C 335.390625 306.777344 334.070312 306.679688 333.15625 306.859375 C 332.285156 307.027344 328.367188 309.066406 327.296875 309.90625 C 325.585938 311.257812 323.777344 312.542969 323.25 312.785156 C 322.96875 312.917969 322.402344 313.285156 321.992188 313.601562 C 321.578125 313.917969 320.605469 314.605469 319.828125 315.125 C 319.050781 315.644531 318.003906 316.359375 317.5 316.710938 C 316.996094 317.0625 315.722656 317.921875 314.671875 318.625 C 313.621094 319.328125 312.574219 320.046875 312.34375 320.214844 C 311.984375 320.484375 308.847656 322.632812 307.765625 323.355469 C 307.558594 323.492188 306.765625 324.042969 306 324.582031 C 305.234375 325.121094 304.496094 325.601562 304.359375 325.652344 C 303.988281 325.789062 301.738281 327.320312 301.617188 327.519531 C 301.558594 327.613281 301.234375 327.84375 300.898438 328.03125 C 298.910156 329.136719 298.035156 329.664062 297.324219 330.183594 C 296.171875 331.027344 294.429688 332.113281 293.441406 332.601562 C 292.96875 332.832031 292.09375 333.425781 291.5 333.914062 C 290.902344 334.402344 289.769531 335.152344 288.980469 335.578125 C 287.722656 336.257812 285.824219 337.484375 285.066406 338.097656 C 284.929688 338.210938 284.28125 338.582031 283.625 338.929688 C 282.96875 339.273438 282.039062 339.855469 281.558594 340.21875 C 281.078125 340.582031 280.117188 341.183594 279.425781 341.550781 C 277.429688 342.613281 275.90625 343.519531 275.15625 344.089844 C 274.777344 344.382812 273.953125 344.90625 273.320312 345.253906 C 272.691406 345.605469 271.839844 346.164062 271.429688 346.5 C 270.457031 347.289062 269.328125 347.984375 267.699219 348.8125 C 266.1875 349.578125 264.714844 350.789062 264.480469 351.460938 C 264.289062 352.011719 264.46875 352.582031 264.90625 352.816406 C 265.347656 353.054688 266.941406 353.28125 269.683594 353.503906 C 270.960938 353.609375 272.984375 353.882812 274.171875 354.109375 C 277.949219 354.835938 283.078125 355.660156 285.398438 355.914062 C 286.632812 356.046875 288.769531 356.304688 290.144531 356.488281 C 291.828125 356.710938 294.488281 356.875 298.292969 356.988281 C 305.289062 357.195312 306.695312 357.269531 311.179688 357.664062 C 313.144531 357.835938 315.914062 358.058594 317.332031 358.15625 C 318.75 358.257812 320.882812 358.414062 322.074219 358.5 C 323.261719 358.589844 326.03125 358.734375 328.226562 358.820312 C 332.070312 358.972656 334.667969 359.035156 346.773438 359.265625 C 349.835938 359.324219 363.199219 359.378906 376.460938 359.390625 C 395.640625 359.402344 402.644531 359.347656 410.664062 359.121094 C 416.210938 358.960938 420.851562 358.796875 420.976562 358.753906 C 421.101562 358.710938 424.007812 358.523438 427.441406 358.335938 C 434.195312 357.964844 436.625 357.78125 439.582031 357.414062 C 440.632812 357.285156 443.179688 357.0625 445.238281 356.917969 C 447.296875 356.773438 450.101562 356.507812 451.472656 356.328125 C 452.847656 356.148438 455.914062 355.847656 458.292969 355.660156 C 460.671875 355.46875 462.992188 355.246094 463.449219 355.160156 C 463.90625 355.078125 465.515625 354.816406 467.023438 354.585938 C 468.535156 354.355469 470.480469 354.023438 471.351562 353.847656 C 472.21875 353.671875 473.640625 353.480469 474.511719 353.421875 C 476.972656 353.257812 479.226562 353.019531 481.578125 352.675781 C 482.769531 352.5 484.601562 352.273438 485.652344 352.167969 C 486.707031 352.066406 488.238281 351.804688 489.0625 351.589844 C 489.886719 351.375 490.898438 351.148438 491.308594 351.085938 C 492.296875 350.941406 495.335938 350.332031 495.457031 350.257812 C 495.511719 350.226562 496.449219 350.078125 497.546875 349.933594 C 502.507812 349.265625 505.464844 348.601562 510.519531 347.007812 C 511.34375 346.75 512.792969 346.378906 513.742188 346.183594 C 515.09375 345.902344 515.890625 345.613281 517.402344 344.84375 C 518.464844 344.304688 520.046875 343.554688 520.914062 343.171875 C 522.925781 342.292969 523.933594 341.714844 525.257812 340.683594 C 525.84375 340.226562 526.609375 339.648438 526.964844 339.390625 C 527.320312 339.136719 527.804688 338.71875 528.046875 338.46875 C 528.285156 338.214844 529.136719 337.320312 529.9375 336.480469 C 530.738281 335.640625 531.394531 334.894531 531.394531 334.820312 C 531.394531 334.746094 531.785156 334.214844 532.265625 333.640625 C 533.207031 332.515625 534.054688 331.324219 534.054688 331.121094 C 534.054688 331.054688 534.285156 330.53125 534.566406 329.964844 C 534.847656 329.398438 535.269531 328.484375 535.5 327.933594 C 535.730469 327.386719 536.089844 326.5625 536.300781 326.101562 C 537.097656 324.371094 537.5625 323.058594 537.863281 321.6875 C 538.546875 318.570312 539.285156 315.65625 539.972656 313.359375 C 540.953125 310.074219 541.152344 309.097656 541.53125 305.597656 C 541.710938 303.9375 542.003906 301.914062 542.183594 301.101562 C 542.359375 300.285156 542.558594 299.207031 542.621094 298.703125 C 542.683594 298.199219 542.910156 296.890625 543.125 295.789062 C 543.339844 294.691406 543.667969 292.726562 543.855469 291.421875 C 544.042969 290.121094 544.273438 288.714844 544.367188 288.296875 C 544.457031 287.882812 544.683594 286.097656 544.867188 284.335938 C 545.050781 282.574219 545.347656 280.421875 545.527344 279.550781 C 545.707031 278.679688 546.007812 276.84375 546.199219 275.46875 C 546.390625 274.097656 546.652344 272.523438 546.773438 271.972656 C 547.308594 269.601562 548.4375 260.484375 548.765625 255.890625 C 548.910156 253.925781 549.171875 251.082031 549.351562 249.570312 C 549.652344 247.039062 549.8125 245.148438 550.433594 236.828125 C 550.785156 232.144531 551.28125 220.164062 551.621094 208.097656 C 551.671875 206.3125 551.769531 203.015625 551.839844 200.769531 C 551.910156 198.527344 551.980469 191.941406 551.992188 186.136719 C 552.007812 180.332031 552.054688 175.527344 552.09375 175.460938 C 552.230469 175.246094 551.6875 157.054688 551.269531 147.804688 C 551.140625 144.921875 550.988281 140.984375 550.933594 139.0625 C 550.804688 134.398438 550.546875 128.972656 550.351562 126.820312 C 550.1875 124.972656 550.128906 124.1875 549.847656 119.910156 C 549.75 118.441406 549.601562 116.644531 549.515625 115.910156 C 549.214844 113.328125 548.875 109.722656 548.699219 107.25 C 548.601562 105.875 548.476562 104.191406 548.425781 103.503906 C 548.328125 102.230469 547.917969 99.070312 547.769531 98.4375 C 547.679688 98.0625 547.457031 96.003906 547.1875 93.09375 C 547.09375 92.085938 546.871094 90.476562 546.695312 89.511719 C 546.515625 88.550781 546.253906 86.789062 546.105469 85.597656 C 545.960938 84.40625 545.738281 82.757812 545.613281 81.933594 C 545.488281 81.109375 545.226562 78.863281 545.03125 76.9375 C 544.707031 73.730469 544.121094 70.476562 543.042969 65.863281 C 542.859375 65.082031 542.628906 63.847656 542.53125 63.113281 C 542.433594 62.382812 542.210938 61.253906 542.039062 60.605469 C 541.863281 59.960938 541.566406 58.5 541.375 57.359375 C 541.1875 56.21875 540.917969 55.003906 540.785156 54.65625 C 540.648438 54.3125 540.355469 53.1875 540.132812 52.160156 C 539.910156 51.128906 539.621094 49.988281 539.492188 49.621094 C 539.359375 49.253906 539.199219 48.617188 539.136719 48.207031 C 539.070312 47.792969 538.804688 46.558594 538.546875 45.460938 C 538.289062 44.359375 537.988281 42.859375 537.878906 42.128906 C 537.648438 40.589844 536.902344 38.148438 536.203125 36.628906 C 535.9375 36.050781 535.71875 35.496094 535.71875 35.394531 C 535.71875 35.1875 535.714844 35.179688 534.707031 33.144531 C 533.480469 30.660156 530.378906 27.21875 527.402344 25.039062 C 526.667969 24.503906 524.609375 23.390625 523.410156 22.882812 C 522.90625 22.667969 521.785156 22.097656 520.914062 21.617188 C 519.9375 21.074219 518.226562 20.363281 516.421875 19.75 C 514.824219 19.207031 512.640625 18.417969 511.570312 18.003906 C 510.203125 17.46875 509.027344 17.144531 507.582031 16.90625 C 506.453125 16.722656 505.265625 16.492188 504.945312 16.394531 C 504.628906 16.300781 503.652344 16.066406 502.785156 15.878906 C 501.914062 15.691406 500.570312 15.359375 499.792969 15.148438 C 496.554688 14.257812 493.765625 13.6875 491.566406 13.457031 C 490.28125 13.324219 488.707031 13.101562 488.066406 12.960938 C 487.425781 12.820312 486.078125 12.566406 485.070312 12.390625 C 484.066406 12.21875 482.457031 11.886719 481.496094 11.660156 C 478.417969 10.925781 473.667969 10.085938 471.101562 9.820312 C 468.457031 9.550781 464.828125 9.027344 460.039062 8.222656 C 458.4375 7.953125 455.632812 7.582031 453.800781 7.390625 C 451.972656 7.203125 449.726562 6.945312 448.8125 6.820312 C 447.898438 6.699219 446.0625 6.550781 444.738281 6.492188 C 440.59375 6.3125 437.117188 6.070312 433.925781 5.734375 C 432.234375 5.558594 429.691406 5.332031 428.273438 5.234375 C 426.855469 5.136719 424.085938 4.910156 422.117188 4.734375 C 420.152344 4.558594 416.109375 4.335938 413.136719 4.242188 C 410.164062 4.148438 406.046875 3.996094 403.988281 3.902344 C 391.773438 3.347656 387.25 3.207031 379.707031 3.164062 C 375.085938 3.136719 368.574219 3.175781 365.234375 3.246094 "/><g clip-rule="nonzero" clip-path="url(#ba7e9eabbd)"><path style=" stroke:none;fill-rule:nonzero;fill:#000000;fill-opacity:1;" d="M 1416.15625 283.261719 L 1488.785156 89.753906 L 1525.480469 89.753906 L 1598.363281 283.261719 L 1564.460938 283.261719 L 1507.070312 122.28125 L 1449.550781 283.261719 Z M 1416.15625 283.261719 "/></g><g clip-rule="nonzero" clip-path="url(#2f8a88c5d8)"><path style=" stroke:none;fill-rule:nonzero;fill:#000000;fill-opacity:1;" d="M 611.277344 186.378906 C 611.277344 167.527344 615.632812 150.628906 624.40625 135.722656 C 633.148438 120.753906 645.050781 109.066406 660.136719 100.730469 C 675.195312 92.328125 691.640625 88.097656 709.503906 88.097656 C 730.023438 88.097656 748.265625 93.148438 764.175781 103.253906 C 780.148438 113.300781 791.730469 127.511719 798.898438 145.957031 L 761.019531 145.957031 C 756.03125 135.785156 749.089844 128.207031 740.1875 123.214844 C 731.347656 118.257812 721.121094 115.761719 709.503906 115.761719 C 696.785156 115.761719 685.421875 118.636719 675.414062 124.351562 C 665.472656 130.101562 657.675781 138.3125 652.058594 148.988281 C 646.503906 159.695312 643.722656 172.167969 643.722656 186.378906 C 643.722656 200.625 646.503906 213.097656 652.058594 223.773438 C 657.675781 234.480469 665.472656 242.722656 675.414062 248.535156 C 685.421875 254.347656 696.785156 257.25 709.503906 257.25 C 721.121094 257.25 731.347656 254.789062 740.1875 249.796875 C 749.089844 244.839844 756.03125 237.257812 761.019531 227.058594 L 798.898438 227.058594 C 791.730469 245.503906 780.148438 259.746094 764.175781 269.757812 C 748.265625 279.707031 730.023438 284.664062 709.503906 284.664062 C 691.386719 284.664062 674.847656 280.496094 659.886719 272.160156 C 644.988281 263.757812 633.148438 252.070312 624.40625 237.164062 C 615.632812 222.195312 611.277344 205.265625 611.277344 186.378906 Z M 611.277344 186.378906 "/></g><g clip-rule="nonzero" clip-path="url(#cd8943ac80)"><path style=" stroke:none;fill-rule:nonzero;fill:#000000;fill-opacity:1;" d="M 835.703125 78.117188 L 867.269531 78.117188 L 867.269531 283.023438 L 835.703125 283.023438 Z M 835.703125 78.117188 "/></g><path style=" stroke:none;fill-rule:nonzero;fill:#000000;fill-opacity:1;" d="M 898.292969 206.089844 C 898.292969 190.769531 901.449219 177.222656 907.761719 165.410156 C 914.136719 153.535156 922.820312 144.3125 933.773438 137.742188 C 944.789062 131.175781 956.941406 127.890625 970.261719 127.890625 C 982.285156 127.890625 992.765625 130.257812 1001.699219 134.964844 C 1010.601562 139.703125 1017.765625 145.574219 1023.164062 152.652344 L 1023.164062 130.417969 L 1054.980469 130.417969 L 1054.980469 283.023438 L 1023.164062 283.023438 L 1023.164062 260.285156 C 1017.765625 267.546875 1010.441406 273.546875 1001.195312 278.347656 C 992.007812 283.148438 981.527344 285.550781 969.753906 285.550781 C 956.625 285.550781 944.566406 282.203125 933.644531 275.441406 C 922.785156 268.714844 914.136719 259.335938 907.761719 247.269531 C 901.449219 235.144531 898.292969 221.4375 898.292969 206.089844 Z M 1023.164062 206.59375 C 1023.164062 196.078125 1020.953125 186.949219 1016.597656 179.179688 C 1012.304688 171.441406 1006.625 165.535156 999.550781 161.492188 C 992.546875 157.386719 985.03125 155.304688 976.953125 155.304688 C 968.777344 155.304688 961.203125 157.324219 954.226562 161.367188 C 947.21875 165.347656 941.535156 171.15625 937.179688 178.800781 C 932.886719 186.476562 930.742188 195.570312 930.742188 206.089844 C 930.742188 216.636719 932.886719 225.859375 937.179688 233.753906 C 941.535156 241.679688 947.28125 247.746094 954.351562 251.945312 C 961.421875 256.082031 968.933594 258.136719 976.953125 258.136719 C 985.03125 258.136719 992.546875 256.113281 999.550781 252.070312 C 1006.625 247.964844 1012.304688 241.964844 1016.597656 234.132812 C 1020.953125 226.300781 1023.164062 217.140625 1023.164062 206.59375 Z M 1023.164062 206.59375 "/><path style=" stroke:none;fill-rule:nonzero;fill:#000000;fill-opacity:1;" d="M 1127.992188 152.652344 C 1132.601562 144.914062 1138.753906 138.847656 1146.425781 134.460938 C 1154.0625 130.101562 1163.15625 127.890625 1173.695312 127.890625 L 1173.695312 160.609375 L 1165.617188 160.609375 C 1153.304688 160.609375 1143.964844 163.765625 1137.585938 170.085938 C 1131.179688 176.335938 1127.992188 187.203125 1127.992188 202.675781 L 1127.992188 283.023438 L 1096.425781 283.023438 L 1096.425781 130.417969 L 1127.992188 130.417969 Z M 1127.992188 152.652344 "/><g clip-rule="nonzero" clip-path="url(#88480dac90)"><path style=" stroke:none;fill-rule:nonzero;fill:#000000;fill-opacity:1;" d="M 1192.230469 206.089844 C 1192.230469 190.769531 1195.386719 177.222656 1201.699219 165.410156 C 1208.074219 153.535156 1216.753906 144.3125 1227.707031 137.742188 C 1238.722656 131.175781 1250.875 127.890625 1264.195312 127.890625 C 1276.222656 127.890625 1286.703125 130.257812 1295.636719 134.964844 C 1304.535156 139.703125 1311.703125 145.574219 1317.097656 152.652344 L 1317.097656 130.417969 L 1348.917969 130.417969 L 1348.917969 283.023438 L 1317.097656 283.023438 L 1317.097656 260.285156 C 1311.703125 267.546875 1304.378906 273.546875 1295.128906 278.347656 C 1285.945312 283.148438 1275.464844 285.550781 1263.691406 285.550781 C 1250.5625 285.550781 1238.503906 282.203125 1227.582031 275.441406 C 1216.722656 268.714844 1208.074219 259.335938 1201.699219 247.269531 C 1195.386719 235.144531 1192.230469 221.4375 1192.230469 206.089844 Z M 1317.097656 206.59375 C 1317.097656 196.078125 1314.890625 186.949219 1310.535156 179.179688 C 1306.242188 171.441406 1300.558594 165.535156 1293.488281 161.492188 C 1286.480469 157.386719 1278.96875 155.304688 1270.886719 155.304688 C 1262.714844 155.304688 1255.136719 157.324219 1248.160156 161.367188 C 1241.15625 165.347656 1235.472656 171.15625 1231.117188 178.800781 C 1226.824219 186.476562 1224.675781 195.570312 1224.675781 206.089844 C 1224.675781 216.636719 1226.824219 225.859375 1231.117188 233.753906 C 1235.472656 241.679688 1241.21875 247.746094 1248.289062 251.945312 C 1255.359375 256.082031 1262.871094 258.136719 1270.886719 258.136719 C 1278.96875 258.136719 1286.480469 256.113281 1293.488281 252.070312 C 1300.558594 247.964844 1306.242188 241.964844 1310.535156 234.132812 C 1314.890625 226.300781 1317.097656 217.140625 1317.097656 206.59375 Z M 1317.097656 206.59375 "/></g><g clip-rule="nonzero" clip-path="url(#1fb5c555e7)"><path style=" stroke:none;fill-rule:nonzero;fill:#000000;fill-opacity:1;" d="M 1382.882812 110.128906 C 1377.136719 110.128906 1372.335938 108.203125 1368.484375 104.320312 C 1364.601562 100.464844 1362.671875 95.664062 1362.671875 89.917969 C 1362.671875 84.199219 1364.601562 79.402344 1368.484375 75.515625 C 1372.335938 71.664062 1377.136719 69.703125 1382.882812 69.703125 C 1388.347656 69.703125 1393.023438 71.664062 1396.90625 75.515625 C 1400.757812 79.402344 1402.71875 84.199219 1402.71875 89.917969 C 1402.71875 95.664062 1400.757812 100.464844 1396.90625 104.320312 C 1393.023438 108.203125 1388.347656 110.128906 1382.882812 110.128906 Z M 1398.296875 130.34375 L 1398.296875 282.949219 L 1366.714844 282.949219 L 1366.714844 130.34375 Z M 1398.296875 130.34375 "/></g><g clip-rule="nonzero" clip-path="url(#0ef1f57681)"><path style=" stroke:none;fill-rule:nonzero;fill:#000000;fill-opacity:1;" d="M 1382.882812 110.121094 C 1377.136719 110.121094 1372.335938 108.195312 1368.484375 104.3125 C 1364.601562 100.457031 1362.671875 95.65625 1362.671875 89.910156 C 1362.671875 84.195312 1364.601562 79.394531 1368.484375 75.507812 C 1372.335938 71.65625 1377.136719 69.699219 1382.882812 69.699219 C 1388.347656 69.699219 1393.023438 71.65625 1396.90625 75.507812 C 1400.757812 79.394531 1402.71875 84.195312 1402.71875 89.910156 C 1402.71875 95.65625 1400.757812 100.457031 1396.90625 104.3125 C 1393.023438 108.195312 1388.347656 110.121094 1382.882812 110.121094 Z M 1398.296875 130.335938 L 1398.296875 282.941406 L 1366.714844 282.941406 L 1366.714844 130.335938 Z M 1398.296875 130.335938 "/></g></g></svg>