<svg xmlns="http://www.w3.org/2000/svg" xmlns:xlink="http://www.w3.org/1999/xlink" width="2400" zoomAndPan="magnify" viewBox="0 0 1800 359.999987" height="480" preserveAspectRatio="xMidYMid meet" version="1.2"><defs><clipPath id="7640414840"><path d="M 1416.605469 89 L 1599 89 L 1599 283.644531 L 1416.605469 283.644531 Z M 1416.605469 89 "/></clipPath><clipPath id="f237fdd3c2"><path d="M 611.851562 88 L 799 88 L 799 285 L 611.851562 285 Z M 611.851562 88 "/></clipPath><clipPath id="18f9e647bb"><path d="M 835 78.527344 L 868 78.527344 L 868 283 L 835 283 Z M 835 78.527344 "/></clipPath><clipPath id="0a45d9c6bb"><path d="M 1192 127 L 1348.601562 127 L 1348.601562 286 L 1192 286 Z M 1192 127 "/></clipPath><clipPath id="711e09587e"><path d="M 1362 126.492188 L 1403 126.492188 L 1403 283 L 1362 283 Z M 1362 126.492188 "/></clipPath><clipPath id="7156eb9b1d"><path d="M 1362 69 L 1403 69 L 1403 116.894531 L 1362 116.894531 Z M 1362 69 "/></clipPath></defs><g id="78579419f7"><path style=" stroke:none;fill-rule:evenodd;fill:#ffffff;fill-opacity:1;" d="M 365.257812 3.164062 C 358.980469 3.296875 343.15625 3.875 338.109375 4.15625 C 336.527344 4.242188 333.886719 4.460938 332.242188 4.640625 C 330.59375 4.820312 327.714844 5.050781 325.839844 5.148438 C 323.960938 5.246094 321.269531 5.472656 319.851562 5.648438 C 318.433594 5.824219 315.511719 6.082031 313.363281 6.222656 C 306.964844 6.644531 306.773438 6.65625 302.96875 6.996094 C 297.597656 7.476562 293.457031 7.945312 292.058594 8.230469 C 291.382812 8.367188 290.042969 8.589844 289.082031 8.71875 C 288.121094 8.851562 286.699219 9.070312 285.921875 9.210938 C 285.144531 9.347656 283.644531 9.542969 282.59375 9.636719 C 278.707031 9.996094 277.476562 10.15625 275.542969 10.566406 C 274.457031 10.796875 272.921875 11.085938 272.132812 11.214844 C 271.347656 11.34375 269.953125 11.597656 269.039062 11.78125 C 265.351562 12.523438 263.597656 12.84375 261.054688 13.234375 C 258.453125 13.632812 254.984375 14.433594 252.488281 15.210938 C 251.804688 15.425781 250.753906 15.71875 250.160156 15.863281 C 249.566406 16.007812 248.667969 16.242188 248.164062 16.378906 C 247.660156 16.519531 246.539062 16.753906 245.671875 16.902344 C 244.683594 17.070312 243.398438 17.449219 242.261719 17.917969 C 241.253906 18.328125 239.757812 18.90625 238.933594 19.203125 C 235.222656 20.542969 235.109375 20.601562 231.765625 22.722656 C 229.753906 24 229.273438 24.351562 228.371094 25.1875 C 227.867188 25.65625 227.160156 26.292969 226.800781 26.597656 C 226.179688 27.125 224.152344 29.457031 223.1875 30.75 C 222.53125 31.628906 222.042969 32.507812 221.332031 34.09375 C 220.984375 34.871094 220.507812 35.890625 220.277344 36.355469 C 219.597656 37.738281 219.050781 39.390625 218.695312 41.164062 C 218.511719 42.078125 218.113281 43.722656 217.8125 44.820312 C 217.511719 45.917969 217.171875 47.230469 217.058594 47.730469 C 216.945312 48.234375 216.789062 48.765625 216.714844 48.910156 C 216.492188 49.347656 215.285156 55.621094 214.921875 58.222656 C 214.738281 59.554688 214.386719 61.5 214.144531 62.546875 C 213.898438 63.59375 213.523438 65.195312 213.308594 66.109375 C 213.09375 67.027344 212.800781 68.820312 212.65625 70.101562 C 212.515625 71.382812 212.214844 73.480469 211.992188 74.757812 C 211.769531 76.039062 211.503906 77.6875 211.402344 78.417969 C 211.300781 79.152344 211.082031 80.347656 210.910156 81.078125 C 210.742188 81.8125 210.480469 83.269531 210.324219 84.324219 C 210.171875 85.375 209.902344 86.855469 209.722656 87.613281 C 209.542969 88.375 209.25 90.207031 209.074219 91.691406 C 208.898438 93.171875 208.566406 95.582031 208.339844 97.046875 C 207.917969 99.789062 207.054688 105.949219 206.742188 108.441406 C 206.648438 109.21875 206.421875 110.402344 206.242188 111.070312 C 205.75 112.894531 205.621094 114.023438 205.253906 119.832031 C 205.066406 122.761719 204.804688 126.464844 204.671875 128.066406 C 204.535156 129.667969 204.347656 132.625 204.253906 134.636719 C 204.160156 136.648438 204.046875 138.484375 204.003906 138.710938 C 203.875 139.398438 203.457031 145.210938 203.265625 148.941406 C 202.46875 164.625 202.371094 168.292969 202.355469 183.371094 C 202.339844 199.269531 202.394531 204.257812 202.613281 208.402344 C 202.890625 213.5625 203.609375 224.007812 203.839844 226.199219 C 204.207031 229.65625 204.398438 232 204.585938 235.261719 C 204.683594 236.910156 204.867188 239.566406 204.996094 241.167969 C 205.125 242.769531 205.277344 245.164062 205.332031 246.488281 C 205.613281 253.140625 206.382812 261.183594 207.25 266.53125 C 207.425781 267.628906 207.652344 269.425781 207.75 270.523438 C 207.980469 273.089844 208.167969 274.863281 208.570312 278.257812 C 208.75 279.765625 209.015625 282.648438 209.164062 284.660156 C 209.308594 286.671875 209.570312 289.03125 209.742188 289.898438 C 209.914062 290.769531 210.140625 292.265625 210.246094 293.226562 C 210.351562 294.1875 210.613281 295.832031 210.828125 296.886719 C 211.046875 297.9375 211.34375 299.882812 211.492188 301.210938 C 211.640625 302.535156 211.871094 304.101562 212.003906 304.683594 C 212.136719 305.269531 212.394531 307.101562 212.574219 308.757812 C 212.757812 310.417969 213.054688 312.296875 213.230469 312.9375 C 213.410156 313.574219 213.671875 314.777344 213.8125 315.605469 C 213.953125 316.429688 214.207031 317.664062 214.382812 318.347656 C 214.554688 319.03125 214.789062 320.226562 214.898438 321.003906 C 215.003906 321.78125 215.242188 322.972656 215.421875 323.648438 C 215.597656 324.324219 215.894531 325.65625 216.078125 326.605469 C 216.273438 327.617188 216.785156 329.292969 217.316406 330.65625 C 217.8125 331.9375 218.34375 333.414062 218.492188 333.9375 C 218.8125 335.054688 219.738281 336.847656 220.960938 338.714844 C 221.441406 339.449219 222 340.324219 222.203125 340.664062 C 222.671875 341.453125 225.9375 344.183594 226.988281 344.664062 C 228.144531 345.195312 229.949219 345.160156 231.207031 344.589844 C 232.101562 344.183594 234.863281 341.9375 235.34375 341.226562 C 235.601562 340.847656 237.4375 338.902344 238.308594 338.085938 C 238.609375 337.808594 238.851562 337.511719 238.851562 337.425781 C 238.851562 337.269531 239.0625 337.027344 241.113281 334.828125 C 242.238281 333.621094 243.222656 332.503906 244.390625 331.09375 C 244.683594 330.742188 245.214844 330.144531 245.574219 329.761719 C 245.929688 329.382812 246.566406 328.609375 246.984375 328.050781 C 247.867188 326.871094 249.410156 325.046875 250.839844 323.496094 C 251.386719 322.902344 252.375 321.769531 253.035156 320.976562 C 256.117188 317.273438 256.734375 316.554688 257.292969 315.992188 C 258.179688 315.101562 258.695312 314.488281 258.976562 313.988281 C 259.113281 313.742188 260.460938 312.144531 261.96875 310.4375 C 263.480469 308.726562 264.851562 307.113281 265.019531 306.847656 C 265.191406 306.582031 265.386719 306.367188 265.457031 306.367188 C 265.527344 306.367188 265.773438 306.085938 266.003906 305.742188 C 266.234375 305.398438 266.914062 304.609375 267.515625 303.992188 C 268.117188 303.371094 269.191406 302.171875 269.902344 301.332031 C 270.613281 300.488281 271.421875 299.566406 271.699219 299.28125 C 271.972656 299 272.460938 298.414062 272.78125 297.984375 C 273.101562 297.550781 273.773438 296.8125 274.273438 296.335938 C 274.777344 295.859375 275.609375 294.910156 276.128906 294.222656 C 276.644531 293.539062 277.457031 292.566406 277.933594 292.0625 C 278.410156 291.558594 278.980469 290.886719 279.203125 290.566406 C 279.914062 289.542969 280.339844 288.996094 280.765625 288.550781 C 280.992188 288.3125 281.417969 287.828125 281.710938 287.46875 C 282 287.113281 283.136719 285.738281 284.238281 284.410156 C 287.054688 281.011719 287.019531 281.054688 287.464844 280.503906 C 288.429688 279.3125 288.671875 278.097656 288.15625 277.015625 C 287.925781 276.527344 285.566406 273.804688 283.785156 271.972656 C 283.40625 271.578125 282.804688 270.867188 282.453125 270.390625 C 282.097656 269.914062 281.503906 269.214844 281.136719 268.832031 C 280.765625 268.453125 279.953125 267.40625 279.335938 266.503906 C 278.71875 265.605469 277.800781 264.269531 277.300781 263.539062 C 276.800781 262.804688 276.226562 261.984375 276.023438 261.707031 C 275.820312 261.433594 275.617188 261.097656 275.570312 260.960938 C 275.523438 260.824219 275.042969 260.089844 274.507812 259.328125 C 273.96875 258.570312 273.414062 257.746094 273.277344 257.5 C 273.136719 257.253906 272.652344 256.5 272.195312 255.824219 C 271.738281 255.148438 271.253906 254.398438 271.117188 254.160156 C 270.980469 253.921875 270.605469 253.3125 270.289062 252.808594 C 269.972656 252.304688 269.617188 251.707031 269.5 251.480469 C 269.382812 251.25 269.148438 250.839844 268.976562 250.5625 C 267.734375 248.582031 266.503906 246.367188 266.121094 245.410156 C 265.972656 245.042969 265.390625 243.898438 264.828125 242.867188 C 264.261719 241.832031 263.800781 240.957031 263.800781 240.917969 C 263.800781 240.878906 262.796875 238.804688 261.570312 236.308594 C 260.34375 233.8125 259.253906 231.433594 259.148438 231.019531 C 259.042969 230.609375 258.78125 229.824219 258.566406 229.273438 C 258.347656 228.726562 258.0625 227.941406 257.925781 227.527344 C 257.789062 227.117188 257.324219 225.957031 256.890625 224.949219 C 256.460938 223.945312 255.964844 222.558594 255.789062 221.875 C 255.617188 221.1875 255.289062 219.988281 255.0625 219.210938 C 254.832031 218.433594 254.648438 217.679688 254.648438 217.535156 C 254.652344 217.390625 254.425781 216.472656 254.152344 215.496094 C 253.878906 214.519531 253.542969 213.027344 253.40625 212.183594 C 253.273438 211.335938 252.980469 209.972656 252.761719 209.148438 C 252.1875 207.003906 251.652344 201.792969 251.3125 195.011719 C 251.089844 190.675781 251.210938 174.136719 251.472656 172.226562 C 251.5625 171.585938 251.714844 169.378906 251.816406 167.320312 C 252 163.574219 252.453125 158.03125 252.59375 157.804688 C 252.632812 157.742188 252.851562 156.617188 253.082031 155.308594 C 253.492188 152.953125 254.050781 150.429688 254.691406 148.027344 C 254.875 147.339844 255.285156 145.65625 255.605469 144.28125 C 255.925781 142.910156 256.484375 140.925781 256.847656 139.875 C 258.519531 135.039062 258.816406 134.132812 259.074219 133.089844 C 259.226562 132.476562 259.566406 131.527344 259.824219 130.976562 C 260.085938 130.429688 260.703125 128.96875 261.203125 127.734375 C 262.664062 124.097656 263.226562 122.824219 263.976562 121.457031 C 265.402344 118.84375 266.292969 117.101562 266.292969 116.925781 C 266.292969 116.824219 266.734375 116.089844 267.273438 115.292969 C 267.8125 114.496094 268.625 113.136719 269.074219 112.265625 C 269.527344 111.398438 270.394531 109.957031 271.007812 109.066406 C 271.617188 108.175781 272.117188 107.417969 272.117188 107.386719 C 272.117188 107.140625 273.953125 104.34375 274.609375 103.59375 C 275.058594 103.082031 275.59375 102.332031 275.796875 101.933594 C 276.203125 101.140625 276.792969 100.28125 277.382812 99.625 C 278.148438 98.765625 279.714844 96.847656 280.375 95.957031 C 281.621094 94.273438 284.523438 91.203125 290.507812 85.238281 C 295.1875 80.578125 297.929688 77.980469 298.757812 77.433594 C 299.066406 77.230469 299.371094 77.023438 299.675781 76.820312 C 299.898438 76.671875 300.71875 75.996094 301.503906 75.320312 C 302.292969 74.648438 303.101562 73.980469 303.304688 73.84375 C 303.507812 73.707031 304 73.378906 304.402344 73.117188 C 304.804688 72.851562 305.617188 72.242188 306.210938 71.761719 C 306.804688 71.28125 307.78125 70.601562 308.375 70.257812 C 308.96875 69.914062 309.492188 69.578125 309.539062 69.507812 C 309.691406 69.285156 311.429688 68.167969 313.199219 67.152344 C 315.242188 65.984375 316.632812 65.089844 316.777344 64.855469 C 316.933594 64.605469 318.105469 64.023438 319.765625 63.371094 C 320.589844 63.046875 322.074219 62.34375 323.0625 61.808594 C 324.050781 61.273438 325.585938 60.542969 326.472656 60.1875 C 327.359375 59.828125 328.90625 59.132812 329.914062 58.632812 C 330.917969 58.136719 332.714844 57.421875 333.90625 57.042969 C 336.136719 56.332031 338.644531 55.472656 339.226562 55.214844 C 341.070312 54.402344 342.480469 54.023438 346.960938 53.136719 C 348.195312 52.894531 349.691406 52.558594 350.289062 52.394531 C 350.882812 52.230469 351.929688 51.976562 352.617188 51.835938 C 353.300781 51.691406 354.539062 51.425781 355.359375 51.242188 C 356.183594 51.054688 357.679688 50.828125 358.6875 50.730469 C 359.695312 50.636719 361.675781 50.445312 363.09375 50.304688 C 364.511719 50.164062 366.757812 49.941406 368.085938 49.8125 C 370.820312 49.542969 372.355469 49.367188 375.570312 48.957031 C 378.867188 48.539062 392.183594 48.519531 395.195312 48.929688 C 397.3125 49.21875 399.78125 49.527344 403.511719 49.972656 C 404.65625 50.105469 407.3125 50.375 409.417969 50.566406 C 411.71875 50.777344 413.871094 51.070312 414.820312 51.300781 C 415.691406 51.515625 416.699219 51.738281 417.066406 51.792969 C 417.898438 51.925781 421.152344 52.660156 422.804688 53.089844 C 423.492188 53.269531 425.0625 53.664062 426.296875 53.964844 C 428.566406 54.523438 431.046875 55.304688 431.390625 55.574219 C 431.59375 55.734375 434.113281 56.664062 436.109375 57.320312 C 436.796875 57.546875 437.808594 57.941406 438.355469 58.203125 C 439.929688 58.953125 441.464844 59.636719 442.097656 59.863281 C 443.734375 60.453125 445.398438 61.175781 447.503906 62.207031 C 448.785156 62.832031 450.167969 63.503906 450.582031 63.695312 C 451.792969 64.265625 452.269531 64.558594 453.664062 65.609375 C 454.394531 66.15625 455.4375 66.832031 455.988281 67.113281 C 457.074219 67.671875 457.90625 68.210938 459.0625 69.101562 C 460.351562 70.09375 461.199219 70.683594 461.339844 70.683594 C 461.5625 70.683594 462.945312 71.714844 463.992188 72.664062 C 464.527344 73.148438 465.34375 73.761719 465.800781 74.023438 C 466.257812 74.289062 467.003906 74.839844 467.464844 75.25 C 467.921875 75.660156 468.863281 76.429688 469.558594 76.957031 C 471.503906 78.441406 474.882812 81.257812 476.878906 83.066406 C 477.390625 83.527344 478.808594 84.804688 480.027344 85.902344 C 481.25 87 482.722656 88.386719 483.300781 88.980469 C 483.878906 89.574219 484.46875 90.171875 484.609375 90.3125 C 488.425781 94.039062 491.894531 97.847656 492.777344 99.28125 C 493.714844 100.804688 493.878906 101.21875 493.890625 102.121094 C 493.90625 103.199219 493.550781 103.871094 492.234375 105.28125 C 491.761719 105.785156 491.09375 106.570312 490.75 107.027344 C 490.023438 107.992188 489.078125 108.839844 488.542969 109.011719 C 488.179688 109.125 486.671875 110.816406 486.671875 111.113281 C 486.671875 111.191406 486.207031 111.554688 485.632812 111.914062 C 484.402344 112.691406 484.292969 112.789062 483.433594 113.902344 C 483.070312 114.375 482.65625 114.761719 482.519531 114.761719 C 482.203125 114.765625 480.367188 116.3125 479.988281 116.902344 C 479.832031 117.140625 479.027344 117.960938 478.199219 118.722656 C 477.371094 119.484375 476.695312 120.207031 476.695312 120.335938 C 476.695312 120.460938 476.382812 120.8125 476 121.113281 C 475.617188 121.414062 472.753906 124.203125 469.636719 127.308594 C 466.519531 130.410156 462.808594 133.960938 461.390625 135.199219 C 459.972656 136.433594 458.550781 137.710938 458.226562 138.035156 C 456.644531 139.636719 454.800781 141.152344 454.109375 141.421875 C 453.691406 141.585938 452.929688 141.734375 452.410156 141.75 C 451.085938 141.785156 450.480469 141.359375 448.332031 138.878906 C 447.339844 137.734375 446.324219 136.574219 446.074219 136.300781 C 445.824219 136.023438 445.292969 135.425781 444.894531 134.96875 C 442.886719 132.660156 438.84375 128.996094 435.261719 126.238281 C 433.144531 124.609375 430.835938 122.910156 430.734375 122.910156 C 430.589844 122.910156 428.609375 121.59375 427.378906 120.679688 C 426.832031 120.269531 425.933594 119.707031 425.382812 119.425781 C 424.1875 118.8125 423.652344 118.511719 422.554688 117.832031 C 421.5625 117.21875 419.355469 116.214844 418.3125 115.902344 C 417.902344 115.78125 416.78125 115.296875 415.820312 114.828125 C 414.859375 114.359375 413.773438 113.882812 413.40625 113.765625 C 413.042969 113.652344 412.332031 113.382812 411.828125 113.167969 C 411.324219 112.953125 410.390625 112.664062 409.75 112.527344 C 409.109375 112.390625 408.15625 112.125 407.632812 111.9375 C 407.109375 111.753906 406.53125 111.601562 406.351562 111.601562 C 406.171875 111.601562 405.980469 111.527344 405.921875 111.433594 C 405.867188 111.34375 405.613281 111.269531 405.359375 111.269531 C 405.109375 111.269531 404.351562 111.082031 403.679688 110.851562 C 402.964844 110.609375 401.359375 110.296875 399.8125 110.097656 C 398.359375 109.910156 396.59375 109.652344 395.890625 109.515625 C 393.066406 108.984375 382.722656 108.75 377.566406 109.105469 C 372.839844 109.433594 367.546875 110.5 362.84375 112.074219 C 362.296875 112.257812 361.511719 112.515625 361.097656 112.648438 C 359.679688 113.105469 358.679688 113.539062 354.945312 115.304688 C 354.074219 115.71875 353.175781 116.109375 352.949219 116.179688 C 352.71875 116.25 352.046875 116.605469 351.453125 116.972656 C 350.859375 117.335938 349.960938 117.871094 349.457031 118.160156 C 348.285156 118.835938 347.152344 119.632812 344.726562 121.496094 C 343.65625 122.320312 342.585938 123.117188 342.351562 123.269531 C 342.117188 123.425781 341.5 123.933594 340.976562 124.40625 C 340.453125 124.878906 339.808594 125.402344 339.542969 125.574219 C 338.472656 126.265625 332.136719 132.726562 331.804688 133.46875 C 331.648438 133.8125 331.445312 134.09375 329.765625 136.296875 C 329.226562 137.003906 328.601562 137.929688 328.378906 138.355469 C 328.152344 138.78125 327.898438 139.214844 327.808594 139.320312 C 327.722656 139.425781 327.445312 139.914062 327.1875 140.402344 C 326.933594 140.890625 326.339844 141.914062 325.867188 142.671875 C 325.394531 143.433594 325.007812 144.128906 325.007812 144.214844 C 325.007812 144.300781 324.941406 144.5 324.859375 144.660156 C 324.78125 144.820312 324.410156 145.585938 324.042969 146.363281 C 323.648438 147.1875 323.253906 148.015625 322.855469 148.84375 C 322.574219 149.429688 322.34375 150.011719 322.34375 150.140625 C 322.34375 150.265625 322.128906 150.945312 321.867188 151.652344 C 321.382812 152.9375 320.457031 155.824219 319.53125 158.917969 C 319.257812 159.835938 318.917969 161.304688 318.777344 162.1875 C 318.640625 163.066406 318.410156 164.226562 318.265625 164.765625 C 317.929688 166.042969 317.242188 172.707031 317.027344 176.800781 C 316.828125 180.652344 316.820312 187.652344 317.015625 189.523438 C 317.09375 190.253906 317.320312 192.464844 317.519531 194.429688 C 317.71875 196.398438 317.941406 198.15625 318.015625 198.339844 C 318.160156 198.691406 318.558594 200.632812 318.851562 202.414062 C 319.058594 203.664062 319.824219 206.1875 320.625 208.257812 C 320.929688 209.046875 321.179688 209.816406 321.179688 209.964844 C 321.179688 210.507812 322.675781 214.03125 323.972656 216.550781 C 325.625 219.761719 325.617188 219.75 326.402344 220.957031 C 327.75 223.035156 328.125 223.636719 328.402344 224.175781 C 328.714844 224.78125 329.335938 225.617188 330.808594 227.421875 C 331.339844 228.074219 331.898438 228.835938 332.046875 229.109375 C 332.195312 229.382812 332.765625 230.054688 333.316406 230.605469 C 333.867188 231.152344 334.320312 231.652344 334.320312 231.710938 C 334.320312 231.871094 338.21875 235.414062 340.054688 236.925781 C 340.945312 237.65625 342.382812 238.753906 343.25 239.363281 C 344.117188 239.972656 344.988281 240.617188 345.1875 240.796875 C 345.722656 241.277344 347.566406 242.460938 348.617188 242.996094 C 349.125 243.253906 350.382812 243.949219 351.414062 244.542969 C 352.441406 245.136719 353.789062 245.828125 354.40625 246.082031 C 355.605469 246.574219 358.195312 247.699219 359.023438 248.085938 C 359.300781 248.214844 360.273438 248.535156 361.1875 248.800781 C 362.097656 249.066406 363.058594 249.363281 363.316406 249.46875 C 363.578125 249.570312 364.363281 249.769531 365.0625 249.914062 C 365.765625 250.0625 366.636719 250.289062 367.003906 250.425781 C 367.371094 250.558594 368.855469 251 370.304688 251.40625 C 373.957031 252.429688 376.8125 252.679688 384.964844 252.703125 C 392.660156 252.722656 397.234375 252.402344 401.425781 251.546875 C 404.550781 250.914062 405.429688 250.703125 405.921875 250.484375 C 406.105469 250.40625 406.847656 250.210938 407.574219 250.058594 C 408.847656 249.789062 409.246094 249.679688 412.367188 248.746094 C 413.167969 248.503906 414.550781 247.96875 415.445312 247.554688 C 416.335938 247.140625 417.515625 246.652344 418.066406 246.46875 C 418.613281 246.285156 419.597656 245.878906 420.246094 245.5625 C 420.898438 245.25 421.480469 244.992188 421.535156 244.992188 C 421.59375 244.992188 422.003906 244.730469 422.453125 244.410156 C 422.898438 244.089844 423.964844 243.476562 424.824219 243.050781 C 426.542969 242.199219 426.679688 242.109375 428.917969 240.375 C 429.777344 239.714844 430.546875 239.171875 430.636719 239.171875 C 430.789062 239.171875 431.859375 238.28125 436.011719 234.6875 C 438.480469 232.550781 441.34375 229.660156 444.261719 226.363281 C 445.03125 225.496094 446.261719 224.144531 446.996094 223.363281 C 447.734375 222.582031 448.839844 221.371094 449.460938 220.671875 C 451.242188 218.65625 453.289062 217.792969 455.300781 218.210938 C 456.339844 218.425781 457.800781 219.152344 458.785156 219.9375 C 459.582031 220.578125 467.4375 228.464844 467.820312 229.011719 C 467.972656 229.230469 468.40625 229.675781 468.777344 230.003906 C 469.152344 230.332031 469.871094 231.046875 470.375 231.597656 C 470.878906 232.144531 471.730469 233.007812 472.273438 233.511719 C 472.816406 234.015625 473.378906 234.574219 473.523438 234.753906 C 473.664062 234.929688 474.191406 235.457031 474.6875 235.917969 C 476.433594 237.546875 479.101562 240.097656 480.261719 241.25 C 480.90625 241.890625 481.734375 242.664062 482.101562 242.96875 C 482.464844 243.277344 483.328125 244.070312 484.011719 244.734375 C 484.699219 245.394531 485.574219 246.164062 485.957031 246.4375 C 486.617188 246.910156 487.757812 247.972656 490.921875 251.0625 C 491.671875 251.796875 492.8125 252.902344 493.457031 253.519531 C 495.15625 255.152344 495.414062 256.050781 494.894531 258.597656 C 494.589844 260.105469 494.210938 260.90625 493.261719 262.039062 C 492.882812 262.496094 492.308594 263.230469 491.992188 263.667969 C 490.816406 265.285156 490.429688 265.742188 488.433594 267.859375 C 487.117188 269.253906 485.808594 270.648438 484.496094 272.046875 C 483.453125 273.15625 482.132812 274.449219 481.558594 274.917969 C 480.988281 275.386719 480.359375 275.996094 480.15625 276.265625 C 479.953125 276.539062 479.226562 277.242188 478.535156 277.824219 C 477.839844 278.410156 476.902344 279.25 476.445312 279.695312 C 475.453125 280.65625 474.003906 281.910156 472.589844 283.019531 C 470.941406 284.320312 468.535156 286.335938 467.546875 287.246094 C 467.042969 287.707031 466.3125 288.269531 465.917969 288.488281 C 465.527344 288.710938 464.648438 289.359375 463.96875 289.933594 C 462.460938 291.210938 461.933594 291.613281 461.390625 291.894531 C 460.886719 292.152344 458.714844 293.707031 458.480469 293.976562 C 458.210938 294.285156 456.023438 295.558594 455.570312 295.667969 C 455.34375 295.722656 454.515625 296.234375 453.738281 296.804688 C 452.957031 297.371094 452.140625 297.894531 451.925781 297.960938 C 451.707031 298.03125 451.164062 298.304688 450.714844 298.566406 C 450.265625 298.832031 449.828125 299.046875 449.738281 299.046875 C 449.515625 299.046875 447.753906 300 446.128906 301.003906 C 445.648438 301.300781 445.160156 301.542969 445.046875 301.542969 C 444.9375 301.542969 444.597656 301.691406 444.300781 301.875 C 444 302.058594 443.3125 302.355469 442.773438 302.539062 C 442.230469 302.722656 440.976562 303.277344 439.988281 303.777344 C 439 304.277344 437.402344 304.917969 436.445312 305.199219 C 433.972656 305.921875 433.042969 306.222656 430.125 307.246094 C 428.707031 307.742188 426.835938 308.28125 425.964844 308.441406 C 425.097656 308.601562 423.488281 308.941406 422.390625 309.195312 C 421.292969 309.449219 420.058594 309.707031 419.644531 309.765625 C 418.898438 309.871094 417.304688 310.222656 413.242188 311.175781 C 410.375 311.847656 409.414062 311.988281 406.257812 312.191406 C 404.792969 312.285156 402.585938 312.507812 401.347656 312.6875 C 399.300781 312.980469 397.167969 313.175781 390.449219 313.675781 C 387.152344 313.921875 382.242188 313.894531 378.0625 313.601562 C 371.402344 313.136719 369.835938 313.011719 367.667969 312.769531 C 366.480469 312.636719 363.671875 312.414062 361.429688 312.273438 C 356.777344 311.984375 355.242188 311.804688 353.363281 311.328125 C 352.632812 311.144531 351.324219 310.851562 350.453125 310.679688 C 349.585938 310.507812 347.789062 310.070312 346.460938 309.707031 C 345.300781 309.390625 344.132812 309.078125 342.96875 308.765625 C 340.363281 308.078125 339.636719 307.859375 338.144531 307.316406 C 337.277344 307 336.378906 306.667969 336.148438 306.574219 C 335.410156 306.277344 334.09375 306.183594 333.175781 306.359375 C 332.304688 306.527344 328.390625 308.5625 327.320312 309.40625 C 325.605469 310.75 323.800781 312.035156 323.269531 312.277344 C 322.992188 312.410156 322.425781 312.773438 322.011719 313.09375 C 321.601562 313.410156 320.628906 314.09375 319.851562 314.613281 C 319.074219 315.132812 318.023438 315.847656 317.523438 316.195312 C 317.019531 316.546875 315.746094 317.410156 314.695312 318.109375 C 313.640625 318.8125 312.59375 319.527344 312.367188 319.699219 C 312.003906 319.964844 308.871094 322.113281 307.789062 322.832031 C 307.582031 322.96875 306.789062 323.519531 306.023438 324.058594 C 305.257812 324.59375 304.519531 325.078125 304.382812 325.125 C 304.011719 325.261719 301.761719 326.792969 301.636719 326.988281 C 301.578125 327.085938 301.257812 327.316406 300.917969 327.5 C 298.929688 328.609375 298.058594 329.132812 297.347656 329.652344 C 296.195312 330.496094 294.449219 331.578125 293.460938 332.066406 C 292.988281 332.296875 292.117188 332.886719 291.519531 333.375 C 290.925781 333.863281 289.792969 334.613281 289.003906 335.039062 C 287.746094 335.71875 285.84375 336.941406 285.089844 337.554688 C 284.953125 337.667969 284.304688 338.039062 283.648438 338.382812 C 282.992188 338.730469 282.0625 339.308594 281.582031 339.671875 C 281.101562 340.035156 280.140625 340.636719 279.449219 341.003906 C 277.449219 342.0625 275.929688 342.96875 275.179688 343.539062 C 274.800781 343.832031 273.972656 344.355469 273.34375 344.703125 C 272.714844 345.050781 271.863281 345.609375 271.449219 345.945312 C 270.476562 346.730469 269.351562 347.429688 267.722656 348.253906 C 266.210938 349.019531 264.738281 350.230469 264.503906 350.898438 C 264.3125 351.449219 264.492188 352.019531 264.929688 352.253906 C 265.371094 352.488281 266.964844 352.71875 269.703125 352.941406 C 270.984375 353.042969 273.003906 353.316406 274.195312 353.546875 C 277.972656 354.269531 283.101562 355.09375 285.421875 355.34375 C 286.65625 355.480469 288.792969 355.738281 290.167969 355.921875 C 291.847656 356.144531 294.511719 356.308594 298.316406 356.421875 C 305.3125 356.628906 306.71875 356.703125 311.203125 357.09375 C 313.167969 357.265625 315.9375 357.488281 317.355469 357.585938 C 318.773438 357.6875 320.90625 357.84375 322.097656 357.929688 C 323.285156 358.019531 326.054688 358.164062 328.25 358.25 C 332.09375 358.402344 334.691406 358.464844 346.796875 358.691406 C 349.859375 358.75 363.21875 358.808594 376.484375 358.816406 C 395.660156 358.832031 402.667969 358.777344 410.6875 358.550781 C 416.234375 358.390625 420.875 358.226562 421 358.183594 C 421.125 358.140625 424.03125 357.953125 427.460938 357.765625 C 434.21875 357.394531 436.648438 357.210938 439.605469 356.847656 C 440.65625 356.714844 443.199219 356.492188 445.257812 356.347656 C 447.316406 356.203125 450.125 355.941406 451.496094 355.761719 C 452.867188 355.582031 455.9375 355.28125 458.316406 355.09375 C 460.695312 354.902344 463.015625 354.679688 463.472656 354.59375 C 463.929688 354.511719 465.539062 354.253906 467.046875 354.019531 C 468.558594 353.789062 470.503906 353.457031 471.371094 353.28125 C 472.242188 353.109375 473.664062 352.917969 474.53125 352.859375 C 476.996094 352.695312 479.246094 352.457031 481.601562 352.113281 C 482.789062 351.9375 484.625 351.710938 485.675781 351.609375 C 486.726562 351.503906 488.261719 351.242188 489.085938 351.027344 C 489.910156 350.8125 490.917969 350.585938 491.332031 350.527344 C 492.320312 350.378906 495.359375 349.773438 495.480469 349.699219 C 495.53125 349.667969 496.472656 349.519531 497.570312 349.371094 C 502.53125 348.707031 505.488281 348.042969 510.542969 346.453125 C 511.363281 346.195312 512.816406 345.824219 513.765625 345.628906 C 515.117188 345.351562 515.914062 345.058594 517.425781 344.292969 C 518.488281 343.753906 520.066406 343.003906 520.9375 342.625 C 522.949219 341.742188 523.957031 341.167969 525.28125 340.136719 C 525.863281 339.683594 526.632812 339.101562 526.988281 338.847656 C 527.34375 338.59375 527.828125 338.175781 528.066406 337.925781 C 528.308594 337.671875 529.160156 336.777344 529.960938 335.941406 C 530.761719 335.101562 531.414062 334.355469 531.414062 334.28125 C 531.414062 334.207031 531.808594 333.679688 532.289062 333.105469 C 533.230469 331.980469 534.074219 330.789062 534.074219 330.589844 C 534.074219 330.519531 534.304688 330 534.589844 329.433594 C 534.871094 328.867188 535.289062 327.953125 535.519531 327.40625 C 535.75 326.855469 536.113281 326.035156 536.324219 325.578125 C 537.121094 323.847656 537.582031 322.539062 537.882812 321.167969 C 538.570312 318.054688 539.308594 315.144531 539.992188 312.851562 C 540.976562 309.570312 541.171875 308.59375 541.554688 305.101562 C 541.734375 303.445312 542.027344 301.421875 542.203125 300.609375 C 542.382812 299.796875 542.578125 298.71875 542.644531 298.214844 C 542.707031 297.714844 542.933594 296.402344 543.148438 295.304688 C 543.363281 294.207031 543.691406 292.246094 543.878906 290.945312 C 544.066406 289.644531 544.292969 288.238281 544.386719 287.824219 C 544.480469 287.40625 544.707031 285.628906 544.890625 283.867188 C 545.074219 282.109375 545.367188 279.957031 545.546875 279.089844 C 545.726562 278.21875 546.03125 276.386719 546.222656 275.015625 C 546.414062 273.640625 546.671875 272.070312 546.796875 271.519531 C 547.328125 269.152344 548.460938 260.050781 548.789062 255.460938 C 548.929688 253.5 549.191406 250.660156 549.371094 249.152344 C 549.671875 246.621094 549.832031 244.734375 550.457031 236.425781 C 550.808594 231.746094 551.300781 219.785156 551.644531 207.734375 C 551.695312 205.953125 551.792969 202.660156 551.863281 200.417969 C 551.929688 198.175781 552 191.601562 552.015625 185.804688 C 552.03125 180.007812 552.078125 175.210938 552.117188 175.144531 C 552.25 174.925781 551.707031 156.761719 551.292969 147.527344 C 551.160156 144.644531 551.011719 140.714844 550.957031 138.792969 C 550.828125 134.136719 550.570312 128.71875 550.375 126.570312 C 550.210938 124.726562 550.152344 123.9375 549.871094 119.667969 C 549.773438 118.203125 549.625 116.40625 549.539062 115.675781 C 549.238281 113.097656 548.894531 109.492188 548.722656 107.027344 C 548.625 105.65625 548.5 103.96875 548.449219 103.285156 C 548.351562 102.015625 547.941406 98.859375 547.792969 98.226562 C 547.703125 97.851562 547.480469 95.796875 547.207031 92.890625 C 547.113281 91.882812 546.894531 90.273438 546.714844 89.3125 C 546.539062 88.351562 546.273438 86.59375 546.128906 85.40625 C 545.980469 84.214844 545.761719 82.570312 545.636719 81.746094 C 545.511719 80.921875 545.25 78.675781 545.054688 76.753906 C 544.726562 73.554688 544.144531 70.304688 543.066406 65.695312 C 542.882812 64.917969 542.652344 63.683594 542.554688 62.949219 C 542.453125 62.21875 542.230469 61.09375 542.058594 60.445312 C 541.886719 59.800781 541.589844 58.34375 541.398438 57.203125 C 541.207031 56.066406 540.941406 54.851562 540.804688 54.503906 C 540.671875 54.160156 540.378906 53.039062 540.15625 52.011719 C 539.933594 50.984375 539.644531 49.84375 539.511719 49.476562 C 539.382812 49.109375 539.222656 48.472656 539.15625 48.0625 C 539.09375 47.652344 538.828125 46.417969 538.570312 45.320312 C 538.3125 44.222656 538.011719 42.726562 537.902344 41.992188 C 537.671875 40.457031 536.925781 38.019531 536.226562 36.503906 C 535.957031 35.925781 535.738281 35.371094 535.738281 35.269531 C 535.738281 35.0625 535.734375 35.054688 534.730469 33.019531 C 533.503906 30.542969 530.398438 27.105469 527.421875 24.929688 C 526.691406 24.394531 524.632812 23.28125 523.429688 22.773438 C 522.929688 22.558594 521.804688 21.992188 520.9375 21.511719 C 519.957031 20.96875 518.246094 20.257812 516.445312 19.644531 C 514.84375 19.101562 512.660156 18.316406 511.59375 17.902344 C 510.222656 17.367188 509.050781 17.046875 507.601562 16.808594 C 506.472656 16.621094 505.289062 16.390625 504.96875 16.296875 C 504.648438 16.199219 503.675781 15.96875 502.808594 15.78125 C 501.9375 15.589844 500.589844 15.261719 499.8125 15.050781 C 496.574219 14.164062 493.789062 13.589844 491.589844 13.363281 C 490.304688 13.230469 488.726562 13.007812 488.085938 12.867188 C 487.445312 12.726562 486.101562 12.472656 485.09375 12.296875 C 484.085938 12.125 482.476562 11.796875 481.515625 11.566406 C 478.4375 10.832031 473.691406 9.996094 471.121094 9.730469 C 468.480469 9.460938 464.847656 8.9375 460.0625 8.136719 C 458.460938 7.867188 455.652344 7.492188 453.824219 7.304688 C 451.996094 7.117188 449.75 6.859375 448.835938 6.734375 C 447.921875 6.613281 446.085938 6.464844 444.761719 6.40625 C 440.613281 6.226562 437.140625 5.984375 433.949219 5.652344 C 432.257812 5.476562 429.710938 5.25 428.292969 5.152344 C 426.875 5.050781 424.105469 4.828125 422.140625 4.652344 C 420.171875 4.472656 416.132812 4.253906 413.160156 4.160156 C 410.183594 4.066406 406.070312 3.914062 404.011719 3.820312 C 391.796875 3.265625 387.273438 3.128906 379.726562 3.085938 C 375.109375 3.058594 368.597656 3.09375 365.257812 3.164062 "/><g clip-rule="nonzero" clip-path="url(#7640414840)"><path style=" stroke:none;fill-rule:nonzero;fill:#ffffff;fill-opacity:1;" d="M 1416.597656 283.292969 L 1489.210938 89.953125 L 1525.898438 89.953125 L 1598.765625 283.292969 L 1564.871094 283.292969 L 1507.492188 122.453125 L 1449.984375 283.292969 Z M 1416.597656 283.292969 "/></g><g clip-rule="nonzero" clip-path="url(#f237fdd3c2)"><path style=" stroke:none;fill-rule:nonzero;fill:#ffffff;fill-opacity:1;" d="M 611.265625 186.285156 C 611.265625 167.441406 615.621094 150.554688 624.394531 135.65625 C 633.136719 120.695312 645.039062 109.019531 660.125 100.6875 C 675.179688 92.289062 691.625 88.0625 709.488281 88.0625 C 730.003906 88.0625 748.246094 93.109375 764.152344 103.210938 C 780.125 113.25 791.707031 127.453125 798.871094 145.882812 L 760.996094 145.882812 C 756.011719 135.71875 749.066406 128.144531 740.167969 123.160156 C 731.328125 118.203125 721.101562 115.710938 709.488281 115.710938 C 696.769531 115.710938 685.40625 118.582031 675.402344 124.296875 C 665.457031 130.039062 657.664062 138.246094 652.042969 148.914062 C 646.488281 159.613281 643.710938 172.082031 643.710938 186.285156 C 643.710938 200.519531 646.488281 212.984375 652.042969 223.652344 C 657.664062 234.351562 665.457031 242.589844 675.402344 248.398438 C 685.40625 254.207031 696.769531 257.109375 709.488281 257.109375 C 721.101562 257.109375 731.328125 254.648438 740.167969 249.660156 C 749.066406 244.707031 756.011719 237.128906 760.996094 226.9375 L 798.871094 226.9375 C 791.707031 245.367188 780.125 259.601562 764.152344 269.609375 C 748.246094 279.550781 730.003906 284.507812 709.488281 284.507812 C 691.371094 284.507812 674.832031 280.339844 659.871094 272.007812 C 644.972656 263.613281 633.136719 251.933594 624.394531 237.035156 C 615.621094 222.074219 611.265625 205.15625 611.265625 186.285156 Z M 611.265625 186.285156 "/></g><g clip-rule="nonzero" clip-path="url(#18f9e647bb)"><path style=" stroke:none;fill-rule:nonzero;fill:#ffffff;fill-opacity:1;" d="M 835.675781 78.085938 L 867.238281 78.085938 L 867.238281 282.863281 L 835.675781 282.863281 Z M 835.675781 78.085938 "/></g><path style=" stroke:none;fill-rule:nonzero;fill:#ffffff;fill-opacity:1;" d="M 898.261719 205.980469 C 898.261719 190.671875 901.417969 177.128906 907.730469 165.324219 C 914.105469 153.457031 922.785156 144.242188 933.738281 137.675781 C 944.753906 131.113281 956.902344 127.828125 970.222656 127.828125 C 982.25 127.828125 992.726562 130.195312 1001.660156 134.898438 C 1010.558594 139.632812 1017.726562 145.503906 1023.121094 152.574219 L 1023.121094 130.355469 L 1054.9375 130.355469 L 1054.9375 282.863281 L 1023.121094 282.863281 L 1023.121094 260.140625 C 1017.726562 267.398438 1010.402344 273.394531 1001.15625 278.195312 C 991.96875 282.992188 981.492188 285.390625 969.71875 285.390625 C 956.589844 285.390625 944.53125 282.042969 933.609375 275.289062 C 922.753906 268.566406 914.105469 259.191406 907.730469 247.136719 C 901.417969 235.015625 898.261719 221.316406 898.261719 205.980469 Z M 1023.121094 206.484375 C 1023.121094 195.972656 1020.914062 186.851562 1016.558594 179.085938 C 1012.265625 171.355469 1006.582031 165.453125 999.511719 161.414062 C 992.507812 157.308594 984.996094 155.226562 976.914062 155.226562 C 968.738281 155.226562 961.164062 157.246094 954.191406 161.285156 C 947.183594 165.261719 941.5 171.070312 937.144531 178.707031 C 932.855469 186.378906 930.707031 195.46875 930.707031 205.980469 C 930.707031 216.519531 932.855469 225.738281 937.144531 233.628906 C 941.5 241.550781 947.246094 247.609375 954.316406 251.808594 C 961.386719 255.941406 968.898438 257.992188 976.914062 257.992188 C 984.996094 257.992188 992.507812 255.972656 999.511719 251.933594 C 1006.582031 247.832031 1012.265625 241.832031 1016.558594 234.007812 C 1020.914062 226.179688 1023.121094 217.027344 1023.121094 206.484375 Z M 1023.121094 206.484375 "/><path style=" stroke:none;fill-rule:nonzero;fill:#ffffff;fill-opacity:1;" d="M 1127.941406 152.574219 C 1132.550781 144.84375 1138.707031 138.78125 1146.375 134.394531 C 1154.011719 130.039062 1163.101562 127.828125 1173.644531 127.828125 L 1173.644531 160.527344 L 1165.566406 160.527344 C 1153.253906 160.527344 1143.914062 163.683594 1137.539062 169.996094 C 1131.128906 176.246094 1127.941406 187.105469 1127.941406 202.570312 L 1127.941406 282.863281 L 1096.378906 282.863281 L 1096.378906 130.355469 L 1127.941406 130.355469 Z M 1127.941406 152.574219 "/><g clip-rule="nonzero" clip-path="url(#0a45d9c6bb)"><path style=" stroke:none;fill-rule:nonzero;fill:#ffffff;fill-opacity:1;" d="M 1192.175781 205.980469 C 1192.175781 190.671875 1195.332031 177.128906 1201.644531 165.324219 C 1208.019531 153.457031 1216.699219 144.242188 1227.652344 137.675781 C 1238.667969 131.113281 1250.820312 127.828125 1264.136719 127.828125 C 1276.164062 127.828125 1286.640625 130.195312 1295.574219 134.898438 C 1304.476562 139.632812 1311.640625 145.503906 1317.035156 152.574219 L 1317.035156 130.355469 L 1348.851562 130.355469 L 1348.851562 282.863281 L 1317.035156 282.863281 L 1317.035156 260.140625 C 1311.640625 267.398438 1304.316406 273.394531 1295.070312 278.195312 C 1285.882812 282.992188 1275.40625 285.390625 1263.632812 285.390625 C 1250.503906 285.390625 1238.445312 282.042969 1227.527344 275.289062 C 1216.667969 268.566406 1208.019531 259.191406 1201.644531 247.136719 C 1195.332031 235.015625 1192.175781 221.316406 1192.175781 205.980469 Z M 1317.035156 206.484375 C 1317.035156 195.972656 1314.828125 186.851562 1310.472656 179.085938 C 1306.179688 171.355469 1300.496094 165.453125 1293.429688 161.414062 C 1286.421875 157.308594 1278.910156 155.226562 1270.828125 155.226562 C 1262.65625 155.226562 1255.078125 157.246094 1248.105469 161.285156 C 1241.097656 165.261719 1235.417969 171.070312 1231.058594 178.707031 C 1226.769531 186.378906 1224.621094 195.46875 1224.621094 205.980469 C 1224.621094 216.519531 1226.769531 225.738281 1231.058594 233.628906 C 1235.417969 241.550781 1241.160156 247.609375 1248.230469 251.808594 C 1255.300781 255.941406 1262.8125 257.992188 1270.828125 257.992188 C 1278.910156 257.992188 1286.421875 255.972656 1293.429688 251.933594 C 1300.496094 247.832031 1306.179688 241.832031 1310.472656 234.007812 C 1314.828125 226.179688 1317.035156 217.027344 1317.035156 206.484375 Z M 1317.035156 206.484375 "/></g><g clip-rule="nonzero" clip-path="url(#711e09587e)"><path style=" stroke:none;fill-rule:nonzero;fill:#ffffff;fill-opacity:1;" d="M 1382.847656 110.113281 C 1377.097656 110.113281 1372.300781 108.1875 1368.445312 104.304688 C 1364.5625 100.453125 1362.636719 95.652344 1362.636719 89.90625 C 1362.636719 84.1875 1364.5625 79.390625 1368.445312 75.503906 C 1372.300781 71.652344 1377.097656 69.695312 1382.847656 69.695312 C 1388.308594 69.695312 1392.984375 71.652344 1396.867188 75.503906 C 1400.71875 79.390625 1402.675781 84.1875 1402.675781 89.90625 C 1402.675781 95.652344 1400.71875 100.453125 1396.867188 104.304688 C 1392.984375 108.1875 1388.308594 110.113281 1382.847656 110.113281 Z M 1398.257812 130.324219 L 1398.257812 282.914062 L 1366.679688 282.914062 L 1366.679688 130.324219 Z M 1398.257812 130.324219 "/></g><g clip-rule="nonzero" clip-path="url(#7156eb9b1d)"><path style=" stroke:none;fill-rule:nonzero;fill:#ffffff;fill-opacity:1;" d="M 1382.847656 110.113281 C 1377.097656 110.113281 1372.300781 108.1875 1368.445312 104.304688 C 1364.5625 100.453125 1362.636719 95.652344 1362.636719 89.90625 C 1362.636719 84.1875 1364.5625 79.390625 1368.445312 75.503906 C 1372.300781 71.652344 1377.097656 69.695312 1382.847656 69.695312 C 1388.308594 69.695312 1392.984375 71.652344 1396.867188 75.503906 C 1400.71875 79.390625 1402.675781 84.1875 1402.675781 89.90625 C 1402.675781 95.652344 1400.71875 100.453125 1396.867188 104.304688 C 1392.984375 108.1875 1388.308594 110.113281 1382.847656 110.113281 Z M 1398.257812 130.324219 L 1398.257812 282.914062 L 1366.679688 282.914062 L 1366.679688 130.324219 Z M 1398.257812 130.324219 "/></g></g></svg>